<svg width="345" height="319" viewBox="0 0 345 319" fill="none" xmlns="http://www.w3.org/2000/svg">
<path d="M120.633 103.516C120.633 103.516 99.6912 150.504 148.345 178.106C196.998 205.709 186.108 172.624 186.108 172.624" stroke="#5B4E4C" stroke-width="2" stroke-linejoin="round" stroke-dasharray="8 8"/>
<path d="M62.71 54.4929C62.71 54.4929 70.8042 105.278 108.231 103.118C145.657 100.958 144.691 65.6876 144.691 65.6876" stroke="#5B4E4C" stroke-width="2" stroke-linejoin="round" stroke-dasharray="8 8"/>
<path d="M53.3865 210.592C53.3865 210.592 85.5732 225.158 123 222.998C160.426 220.839 169 200.998 169 200.998" stroke="#5B4E4C" stroke-width="2" stroke-linejoin="round" stroke-dasharray="8 8"/>
<path d="M163.209 266.845C163.209 266.845 183.772 245.282 196.857 234.501C209.942 223.719 204.501 208.001 204.501 208.001" stroke="#5B4E4C" stroke-width="2" stroke-linejoin="round" stroke-dasharray="8 8"/>
<path d="M299.669 263.564C299.669 263.564 286.116 231.22 260.881 234.97C235.645 238.72 212.501 203.001 212.501 203.001" stroke="#5B4E4C" stroke-width="2" stroke-linejoin="round" stroke-dasharray="8 8"/>
<path d="M136.5 180.499C136.5 180.499 161.574 208.16 199 206.001C236.427 203.841 235.376 162.894 235.376 162.894" stroke="#5B4E4C" stroke-width="2" stroke-linejoin="round" stroke-dasharray="8 8"/>
<path d="M233.302 186.127C233.302 186.127 261.278 192.201 281.839 140.09C302.4 87.9797 292.284 79.9299 292.284 79.9299" stroke="#5B4E4C" stroke-width="2" stroke-linejoin="round" stroke-dasharray="8 8"/>
<path d="M285.649 304.757C311.201 304.757 331.914 283.995 331.914 258.383C331.914 232.771 311.201 212.009 285.649 212.009C260.098 212.009 239.385 232.771 239.385 258.383C239.385 283.995 260.098 304.757 285.649 304.757Z" fill="white"/>
<mask id="mask0_848_562" style="mask-type:luminance" maskUnits="userSpaceOnUse" x="239" y="212" width="93" height="93">
<path d="M285.648 304.749C311.2 304.749 331.913 283.986 331.913 258.374C331.913 232.762 311.2 212 285.648 212C260.097 212 239.384 232.762 239.384 258.374C239.384 283.986 260.097 304.749 285.648 304.749Z" fill="white"/>
</mask>
<g mask="url(#mask0_848_562)">
<path d="M277.129 269.777L277.274 269.758C278.617 270.965 280.622 271.471 282.413 271.661C285.95 272.034 289.652 271.319 293.082 270.561C293.189 270.529 293.284 270.561 293.372 270.63C294.551 270.504 295.888 270.592 297.074 270.63C299.703 270.713 302.723 271.054 305.302 271.616C307.377 272.071 310.183 273.317 311.766 274.739C312.403 275.314 312.85 275.952 313.557 276.521C314.61 277.374 315.783 278.07 316.823 278.955C319.32 281.085 321.578 283.05 323.583 285.686C324.989 287.532 326.149 289.636 327.12 291.748C329.277 296.45 329.649 301.582 330.5 306.614C330.815 308.459 331.25 310.286 331.541 312.138C331.704 313.168 331.786 314.217 331.925 315.254H243.544C243.538 315.071 243.557 314.881 243.544 314.691C243.223 310.4 242.63 306.019 243.349 301.74C244.181 296.804 245.512 290.547 248.425 286.438C251.395 282.248 254.914 278.967 259.321 276.338C263.029 274.126 267.292 271.989 271.359 270.529C272.67 270.055 275.949 268.949 277.135 269.783L277.129 269.777Z" fill="#100B2D"/>
<path d="M276.65 225.856V225.906C276.58 226.052 276.454 226.052 276.384 225.906V225.856H276.65Z" fill="#939393"/>
<path d="M276.378 225.911C276.466 225.911 276.56 225.911 276.642 225.911C278.231 225.993 279.77 227.693 281.725 227.832C285.489 228.091 289.411 226.138 293.012 227.402C293.769 227.668 294.891 228.066 295.591 228.388C296.222 228.679 295.717 228.9 295.749 228.951C297.262 229.621 298.883 230.057 300.345 230.828C300.831 231.163 300.945 231.726 300.957 232.288C301.008 234.627 299.772 237.762 299.04 240.012C298.649 241.2 297.912 242.73 297.937 243.975C297.968 245.682 298.012 247.388 297.937 249.101L298.044 250.321C298.025 250.485 297.874 250.529 297.722 250.51C297.527 250.239 297.294 250.093 297.136 249.79C296.65 248.861 296.392 247.704 296.045 246.724C295.478 245.138 294.91 243.741 294.5 242.079C294.116 240.511 293.579 236.295 292.583 235.246C291.808 234.431 290.49 235.012 289.645 235.455C288.333 236.137 288.024 236.573 286.397 236.788C284.064 237.104 281.63 237.345 279.278 237.054C277.279 236.807 274.952 235.916 273.099 237.066C272.285 239.538 271.074 241.864 269.984 244.215C269.712 244.443 269.296 244.329 269.252 243.962C269.025 241.845 268.918 239.709 268.596 237.604C267.619 237.604 266.225 238.293 266.093 236.776C265.916 234.734 267.594 231.005 268.918 229.463C270.551 227.56 271.711 227.459 273.962 226.783C274.77 226.543 275.552 225.968 276.371 225.917L276.378 225.911Z" fill="black"/>
<path d="M269.989 244.215L270.021 243.981C271.131 241.699 272.127 239.373 273.029 237.003C274.063 236.308 275.349 236.308 276.535 236.472C280.167 237.275 284.095 237.287 287.708 236.371C288.623 235.878 289.55 235.404 290.489 234.955C292.835 233.963 293.371 236.226 293.793 238.052C294.354 241.067 295.004 244 296.221 246.882L296.908 249C297.091 249.562 297.356 249.992 297.759 250.377L297.728 250.51C297.646 250.656 297.608 250.87 297.583 251.035C297.274 253.31 296.883 256.003 295.534 257.893C295.218 258.335 294.827 258.733 294.518 259.169C293.888 260.073 293.743 260.585 292.721 261.236L292.702 261.363C292.501 261.401 292.469 261.432 292.406 261.615C291.99 261.704 291.599 261.881 291.239 262.165C290.565 262.684 289.846 263.132 289.089 263.499C288.093 263.689 287.097 263.897 286.1 264.125C284.776 264.346 283.332 264.081 282.014 263.828C279.807 263.404 277.663 262.886 276.055 261.293C276.055 261.217 276.024 261.186 275.98 261.135C275.601 260.743 274.813 260.415 274.41 260.035C273.3 258.992 272.272 256.23 271.78 254.77C271.616 254.29 271.358 253.772 271.238 253.291C271.067 252.621 271.004 251.844 270.866 251.155C270.74 250.51 270.513 249.846 270.424 249.195C270.204 247.584 270.286 245.827 269.983 244.221L269.989 244.215ZM290.527 244.708C290.149 244.771 289.726 245.22 289.556 245.549C289.007 246.598 289.259 248.058 289.991 248.962C290.672 249.809 291.517 249.316 291.788 248.424C292.015 247.672 291.889 246.914 291.826 246.168C291.82 246.079 291.883 245.972 291.876 245.852C291.838 245.239 291.17 244.6 290.533 244.714L290.527 244.708ZM278.653 245.081C278.344 245.131 277.764 245.618 277.594 245.883C276.856 247.034 277.203 250.333 279.032 249.884C280.375 249.556 280.236 247.148 279.908 246.143C279.738 245.618 279.278 244.98 278.653 245.074V245.081ZM283.08 255.706C282.916 255.712 281.989 255.775 281.92 255.819C281.812 255.883 282.046 256.211 282.102 256.275C282.481 256.685 284.65 258.07 285.192 258.247C286.882 258.803 288.509 257.684 289.644 256.515C289.758 256.395 290.13 256.009 289.821 255.908C288.831 255.769 287.841 255.832 286.844 255.794C285.59 255.75 284.347 255.63 283.08 255.699V255.706Z" fill="#F3A977"/>
<path d="M276.061 261.292C276.238 261.165 276.364 261.431 276.49 261.525C276.868 261.804 277.442 262.265 277.833 262.473C279.516 263.352 282.972 263.971 284.876 264.111C286.081 264.199 287.613 263.548 288.849 263.466C289.952 263.137 291.119 261.93 292.115 261.557C292.222 261.519 292.336 261.557 292.342 261.557C292.355 261.538 292.342 261.437 292.399 261.374C292.475 261.292 292.651 261.285 292.721 261.241L293.357 268.421C293.414 269.167 293.395 269.894 293.357 270.633C292.582 270.716 291.705 271.006 290.917 271.152C286.743 271.898 280.992 272.675 277.347 270.033C277.291 269.995 277.246 269.875 277.12 269.78C277.089 269.584 276.969 269.388 276.931 269.199C276.792 268.554 276.824 267.852 276.748 267.195C276.521 265.229 276.244 263.27 276.055 261.298L276.061 261.292Z" fill="#EF9A61"/>
<path d="M278.653 245.081C279.277 244.98 279.731 245.619 279.908 246.15C280.236 247.148 280.375 249.563 279.031 249.891C277.203 250.34 276.856 247.035 277.594 245.89C277.764 245.625 278.344 245.138 278.653 245.088V245.081Z" fill="black"/>
<path d="M290.527 244.707C291.164 244.599 291.833 245.238 291.87 245.844C291.877 245.965 291.814 246.072 291.82 246.16C291.883 246.913 292.009 247.665 291.782 248.417C291.511 249.308 290.672 249.807 289.985 248.954C289.26 248.05 289.001 246.59 289.55 245.541C289.72 245.219 290.149 244.764 290.521 244.7L290.527 244.707Z" fill="black"/>
<path d="M285.431 248.754C285.286 248.893 285.501 250.107 285.557 250.353C285.69 250.947 285.948 251.56 286.245 252.085C286.245 252.155 285.299 252.806 285.16 252.869C285.04 252.926 284.801 252.869 284.939 253.071C285.072 253.261 285.652 252.945 285.81 252.844C285.948 252.755 286.497 252.313 286.516 252.186C286.541 251.997 286.308 251.668 286.232 251.466C285.904 250.606 285.696 249.727 285.551 248.811C285.557 248.735 285.463 248.716 285.438 248.748L285.431 248.754Z" fill="#986A4B"/>
</g>
<path d="M285.649 304.757C311.201 304.757 331.914 283.995 331.914 258.383C331.914 232.771 311.201 212.009 285.649 212.009C260.098 212.009 239.385 232.771 239.385 258.383C239.385 283.995 260.098 304.757 285.649 304.757Z" stroke="#F5AE58" stroke-width="2" stroke-miterlimit="10"/>
<path d="M152.461 317.886C176.722 317.886 196.389 298.172 196.389 273.854C196.389 249.535 176.722 229.821 152.461 229.821C128.2 229.821 108.532 249.535 108.532 273.854C108.532 298.172 128.2 317.886 152.461 317.886Z" fill="white"/>
<mask id="mask1_848_562" style="mask-type:luminance" maskUnits="userSpaceOnUse" x="108" y="229" width="89" height="89">
<path d="M152.46 317.878C176.721 317.878 196.388 298.164 196.388 273.845C196.388 249.527 176.721 229.812 152.46 229.812C128.199 229.812 108.531 249.527 108.531 273.845C108.531 298.164 128.199 317.878 152.46 317.878Z" fill="white"/>
</mask>
<g mask="url(#mask1_848_562)">
<path d="M148.315 262.209C146.184 264.351 146.321 268.366 148.315 270.515C151.249 273.683 157.661 272.201 159.092 268.852C160.074 266.542 158.392 264.051 158.266 263.865C156.176 260.87 151.003 259.502 148.321 262.203L148.315 262.209Z" fill="white"/>
<path d="M144.285 278.759L144.423 278.741C145.471 279.719 147.069 280.205 148.482 280.44C151.847 280.998 155.469 280.331 158.768 279.665C159.104 279.551 159.421 279.539 159.702 279.623C159.762 279.593 159.828 279.563 159.894 279.539C159.96 279.515 160.02 279.497 160.086 279.491C161.121 279.401 162.415 279.359 163.444 279.491C163.492 279.491 163.54 279.593 163.552 279.647C164.079 282.942 164.738 286.459 165.911 289.64C166.241 290.732 166.121 291.884 165.947 293.019L165.564 295.281C165.235 297.154 165.157 299.026 166.133 300.706L167.24 302.873C168.019 304.571 167.713 306.504 167.36 308.25C167.294 308.718 167.354 308.73 167.534 308.286C169.288 306.12 170.348 303.371 171.3 300.748C171.425 300.178 171.497 299.59 171.515 298.99C173.084 294.063 171.839 288.77 170.366 283.974C170.06 282.87 169.971 281.736 170.096 280.59C170.096 280.554 170.12 280.524 170.144 280.488C170.168 280.452 170.192 280.421 170.222 280.385C170.258 280.361 170.3 280.343 170.336 280.331C170.641 280.229 172.06 280.668 172.455 280.8C174.15 281.364 176.042 282.318 177.353 283.536C178.377 284.761 179.646 285.685 180.987 286.579C182.394 287.743 183.789 288.95 185.148 290.174C190.058 294.609 192.998 300.808 194.069 307.338C194.644 311.209 195.255 315.068 196.027 318.909C196.183 319.893 196.338 320.931 196.297 321.922H112.415C112.313 321.82 112.277 321.658 112.313 321.447C112.044 318.321 111.804 315.176 111.9 312.043C112.008 308.49 112.858 304.811 113.834 301.397C115.014 297.268 116.995 294.009 119.899 290.858C123.964 286.453 129.173 283.638 134.544 281.142C134.55 281.034 134.604 280.986 134.694 280.992L134.891 281.178C135.735 282.786 136.735 284.292 137.903 285.709C140.944 289.94 141.184 295.299 141.352 300.31C141.489 302.291 141.92 304.289 142.998 305.958C142.998 303.803 143.573 301.871 144.327 299.902L145.261 297.028C146.297 293.625 146.86 290.792 144.836 287.587C143.722 286.267 143.178 284.911 142.83 283.248C142.507 281.706 142.196 280.121 142.142 278.525C142.154 278.393 142.896 278.375 143.034 278.375C143.417 278.381 144.094 278.399 144.285 278.759Z" fill="#524E68"/>
<path d="M170.21 280.379C169.881 282.918 170.587 284.214 171.204 286.548C172.144 290.089 172.743 293.858 172 297.501C171.898 298.011 171.647 298.635 171.581 299.109C171.509 299.65 171.581 300.256 171.377 300.778C170.461 303.13 169.635 305.513 168.174 307.596C167.983 307.872 167.743 308.124 167.558 308.394C167.498 308.484 167.486 308.748 167.3 308.694C167.222 308.67 167.222 308.544 167.222 308.472C167.24 307.938 167.462 307.253 167.522 306.689C167.647 305.513 167.695 304.241 167.234 303.142C166.606 301.636 165.366 299.968 165.253 298.341C165.103 296.163 165.726 294.212 165.953 292.106C166.169 290.131 165.749 289.573 165.187 287.821C164.462 285.552 164.073 283.296 163.648 280.955C163.612 280.763 163.468 279.593 163.396 279.575C162.163 279.515 160.924 279.515 159.69 279.629C159.643 279.491 159.601 279.347 159.595 279.203C159.499 276.568 159.265 273.957 159.032 271.341L159.08 271.125L159.169 270.939C161.804 268.928 163.57 265.183 162.48 261.906C161.852 260.094 161.247 258.276 161.151 256.343L160.93 253.042C160.612 250.114 159.654 248.529 157.313 246.759C156.445 246.099 154.853 244.958 153.763 244.922C149.183 244.772 146.494 247.155 143.525 250.306C141.914 252.01 141.393 253.138 140.836 255.419C140.28 257.699 139.735 260.328 139.681 262.765C139.627 265.201 140.992 268.76 143.219 270.086V270.213C143.698 272.757 143.98 275.404 144.153 277.912C144.213 278.176 144.285 278.434 144.369 278.687L144.279 278.771C143.788 278.453 142.77 278.428 142.208 278.573C142.333 279.935 142.501 281.285 142.788 282.624C143.01 283.656 143.327 285.126 143.854 286.014C144.267 286.71 144.83 287.335 145.213 288.043C147.411 292.07 145.752 295.707 144.495 299.68C143.86 301.696 143.315 302.548 143.172 304.787C143.142 305.267 143.094 305.747 143.07 306.227C142.914 306.095 142.812 305.879 142.71 305.705C140.711 302.32 141.381 298.317 140.89 294.56C140.525 291.77 139.699 288.499 138.088 286.176C136.807 284.328 135.64 283.164 134.682 281.003C133.885 279.203 133.748 277.564 133.819 275.608C133.927 272.835 134.28 269.798 135.083 267.152C135.759 264.931 137.136 262.453 136.574 260.088C136.148 258.3 135.759 257.597 136.059 255.623C136.705 251.32 138.879 246.003 141.956 242.894C144.243 240.583 148.225 238.453 151.56 239.143C151.871 239.209 152.308 239.491 152.452 239.515C152.482 239.515 152.883 239.317 153.015 239.287C154.284 238.981 156.403 239.425 157.649 239.827C161.391 241.039 161.271 243.86 163.265 246.609C164.253 247.977 165.486 248.937 166.57 250.186C167.594 251.368 167.977 253.174 168.18 254.699C168.456 256.757 168.019 258.6 168.557 260.652C168.917 262.027 169.617 263.131 170.168 264.403C170.396 264.931 170.563 265.561 170.791 266.059C171.264 267.074 172.114 268.136 172.365 269.24C173.156 272.697 170.665 276.868 170.21 280.391V280.379Z" fill="black"/>
<path d="M159.092 271.113C159.314 273.946 159.763 276.773 159.697 279.623C158.894 279.695 158.17 279.923 157.38 280.061C153.398 280.764 147.98 281.514 144.501 278.999C144.447 278.957 144.411 278.843 144.286 278.759C144.274 278.519 144.13 278.303 144.088 278.069C143.98 277.475 144.004 276.755 143.932 276.149C143.705 274.162 143.459 272.182 143.226 270.195H143.393C145.088 271.671 146.728 273.022 149.063 273.382C150.153 273.61 151.243 273.796 152.344 273.946C153.488 273.772 154.602 273.502 155.685 273.136C156.799 272.518 157.883 271.845 158.942 271.119L159.086 271.101L159.092 271.113Z" fill="#EF9A61"/>
<path d="M159.093 271.114C158.267 271.678 157.309 272.326 156.459 272.854C155.171 273.664 153.806 273.718 152.345 274.054C150.322 273.748 148.394 273.508 146.514 272.656C145.532 272.212 144.143 270.916 143.227 270.202C142.897 269.943 142.269 269.535 142.011 269.265C140.724 267.921 139.622 265.046 139.586 263.186C139.539 260.785 140.281 257.088 140.916 254.742C141.478 252.677 141.939 251.873 143.376 250.319C146.25 247.222 149.352 244.473 153.914 244.821C155.123 244.911 157.428 246.628 158.356 247.456C161.775 250.517 160.799 253.673 161.422 257.754C161.679 259.423 162.218 260.641 162.691 262.208C163.631 265.304 161.679 269.349 159.093 271.108V271.114ZM157.009 254.964C156.65 255.024 156.249 255.45 156.087 255.762C155.566 256.752 155.806 258.145 156.5 259.003C157.147 259.807 157.949 259.339 158.207 258.493C158.422 257.778 158.303 257.064 158.243 256.35C158.237 256.266 158.297 256.164 158.291 256.05C158.255 255.468 157.62 254.862 157.015 254.97L157.009 254.964ZM145.741 255.318C145.448 255.366 144.897 255.828 144.735 256.08C144.035 257.166 144.364 260.305 146.101 259.879C147.376 259.567 147.244 257.28 146.933 256.326C146.771 255.828 146.334 255.222 145.741 255.312V255.318ZM151.968 258.805C151.968 258.805 151.848 258.793 151.854 258.865C151.711 259.735 151.507 260.563 151.184 261.385C151.112 261.571 150.878 261.883 150.908 262.07C150.926 262.19 151.465 262.61 151.603 262.694C151.753 262.79 152.321 263.09 152.453 262.91C152.591 262.724 152.351 262.766 152.238 262.718C152.1 262.658 151.178 262.04 151.172 261.973C151.459 261.475 151.711 260.887 151.842 260.329C151.896 260.089 152.112 258.943 151.968 258.811V258.805ZM149.938 265.4C149.783 265.406 148.903 265.466 148.837 265.508C148.735 265.568 148.956 265.88 149.01 265.94C149.37 266.331 151.429 267.645 151.944 267.813C153.549 268.341 155.093 267.279 156.165 266.169C156.273 266.055 156.626 265.688 156.333 265.592C155.393 265.46 154.453 265.52 153.507 265.484C152.315 265.442 151.136 265.328 149.938 265.394V265.4Z" fill="#F3A977"/>
<path d="M145.742 255.317C146.335 255.221 146.766 255.828 146.933 256.332C147.245 257.28 147.377 259.573 146.101 259.885C144.365 260.305 144.036 257.172 144.736 256.086C144.898 255.834 145.449 255.372 145.742 255.324V255.317Z" fill="black"/>
<path d="M157.01 254.966C157.615 254.864 158.249 255.47 158.285 256.046C158.291 256.16 158.231 256.262 158.237 256.346C158.297 257.06 158.417 257.775 158.202 258.489C157.944 259.335 157.148 259.809 156.495 258.999C155.807 258.141 155.561 256.754 156.082 255.758C156.244 255.452 156.651 255.026 157.004 254.96L157.01 254.966Z" fill="black"/>
<path d="M151.968 258.805C152.112 258.937 151.897 260.089 151.843 260.323C151.711 260.887 151.46 261.469 151.172 261.967C151.172 262.033 152.1 262.652 152.238 262.712C152.352 262.766 152.591 262.712 152.453 262.904C152.322 263.084 151.753 262.784 151.603 262.687C151.466 262.603 150.927 262.183 150.909 262.063C150.885 261.883 151.112 261.571 151.184 261.379C151.507 260.563 151.711 259.729 151.855 258.859C151.849 258.787 151.939 258.769 151.968 258.799V258.805Z" fill="#986A4B"/>
</g>
<path d="M152.461 317.886C176.722 317.886 196.389 298.172 196.389 273.854C196.389 249.535 176.722 229.821 152.461 229.821C128.2 229.821 108.532 249.535 108.532 273.854C108.532 298.172 128.2 317.886 152.461 317.886Z" stroke="#F5AE58" stroke-width="2" stroke-miterlimit="10"/>
<path d="M235.774 200.957C257.524 200.957 275.157 183.283 275.157 161.481C275.157 139.678 257.524 122.004 235.774 122.004C214.023 122.004 196.39 139.678 196.39 161.481C196.39 183.283 214.023 200.957 235.774 200.957Z" fill="white"/>
<mask id="mask2_848_562" style="mask-type:luminance" maskUnits="userSpaceOnUse" x="196" y="122" width="80" height="79">
<path d="M235.773 200.953C257.523 200.953 275.156 183.279 275.156 161.477C275.156 139.674 257.523 122 235.773 122C214.022 122 196.389 139.674 196.389 161.477C196.389 183.279 214.022 200.953 235.773 200.953Z" fill="white"/>
</mask>
<g mask="url(#mask2_848_562)">
<path d="M201.372 198.703V196.357C201.35 197.127 201.361 197.934 201.372 198.703Z" fill="#C8E1EE"/>
<path d="M235.467 134.079V134.122C235.339 134.122 235.21 134.122 235.075 134.122C235.161 134.041 235.344 134.079 235.467 134.079Z" fill="#7A7A7A"/>
<path d="M229.095 168.167L229.197 168.151C229.793 168.867 230.931 169.27 231.844 169.491C235.14 170.293 238.902 169.523 242.15 168.84C242.209 168.84 242.263 168.872 242.311 168.904C243.272 168.797 244.361 168.872 245.322 168.904C247.464 168.974 249.922 169.249 252.016 169.706C253.707 170.072 255.988 171.089 257.276 172.251C257.797 172.719 258.157 173.236 258.731 173.698C259.59 174.392 260.54 174.957 261.388 175.678C263.422 177.411 265.258 179.009 266.885 181.156C268.028 182.657 268.973 184.368 269.762 186.084C271.517 189.91 271.818 194.085 272.51 198.18C272.762 199.681 273.122 201.171 273.358 202.672C273.492 203.512 273.562 204.362 273.669 205.206H201.747C201.741 205.056 201.757 204.9 201.747 204.749C201.596 202.704 201.387 200.757 201.355 198.691V196.345C201.414 194.074 202.165 191.153 202.718 188.92C203.851 184.341 205.552 181.376 208.805 177.997C212.52 174.14 219.326 170.637 224.35 168.824C225.408 168.442 228.102 167.548 229.085 168.162L229.095 168.167Z" fill="#F5AE58"/>
<path d="M246.08 149.322C246.08 149.392 246.08 149.468 246.08 149.538C246.031 149.538 246.015 149.484 245.994 149.452L246.08 149.322Z" fill="#646464"/>
<path d="M240.45 134.079C240.595 134.095 240.74 134.111 240.885 134.122C240.997 134.084 241.116 134.084 241.234 134.122C241.733 134.122 242.645 134.052 243.086 134.197C243.295 134.267 243.327 134.429 243.461 134.558C243.869 134.935 244.293 135.29 244.733 135.629C244.717 137.506 245.243 139.314 245.506 141.149C245.63 142.01 245.667 142.876 245.786 143.737C245.877 144.431 246.183 145.427 246.21 146.051C246.22 146.287 246.059 146.605 246.038 146.868C245.984 147.595 246.102 148.547 246.081 149.322C246.07 149.424 246.043 149.467 245.995 149.451C245.984 149.435 245.968 149.424 245.952 149.408C245.845 149.005 244.9 147.627 244.615 147.164C244.229 146.519 243.901 145.97 243.488 145.34C242.747 144.227 242.887 143.608 242.538 142.424C242.441 142.091 242.028 141.079 241.792 140.869C241.583 140.681 240.552 140.514 240.251 140.503C239.489 140.471 238.142 141.187 237.294 141.359C236.693 141.483 236.204 141.423 235.619 141.461C234.304 141.547 233.171 141.746 231.802 141.682C230.831 141.633 229.892 141.391 228.936 141.251C228.244 141.154 226.934 141.009 226.311 141.343C225.689 141.676 225.27 143.156 224.985 143.796C224.443 145.012 223.858 146.217 223.289 147.417C223.037 147.6 222.769 147.52 222.693 147.213C222.489 146.373 222.575 145.346 222.511 144.49C222.404 143.118 222.006 141.714 221.947 140.32C221.899 139.191 222.189 138.045 222.393 136.947L223.354 135.214C223.45 135.112 223.595 135.101 223.724 135.064C227.165 134.154 231.518 134.187 235.077 134.133C235.206 134.101 235.34 134.095 235.469 134.133C235.619 134.101 235.78 134.09 235.946 134.09C237.444 134.074 238.952 134.09 240.45 134.09V134.079Z" fill="black"/>
<path d="M235.947 134.078C235.834 134.078 235.635 134.121 235.469 134.121C235.431 134.111 235.431 134.095 235.469 134.078C235.63 134.078 235.785 134.078 235.947 134.078Z" fill="#4D4D4D"/>
<path d="M240.885 134.078C240.922 134.089 240.922 134.105 240.885 134.121C240.751 134.121 240.552 134.159 240.45 134.078C240.595 134.078 240.74 134.078 240.885 134.078Z" fill="#585858"/>
<path d="M241.228 134.122C241.115 134.122 240.997 134.122 240.879 134.122V134.079C240.987 134.079 241.153 134.046 241.228 134.122Z" fill="#848484"/>
<path d="M242.312 168.911C241.679 168.981 240.97 169.218 240.326 169.331C237.084 169.912 232.065 170.579 229.285 168.421C229.242 168.389 229.15 168.206 229.097 168.174C228.979 167.91 228.925 167.646 228.887 167.367C228.828 166.963 228.839 166.517 228.796 166.113C228.614 164.542 228.404 162.971 228.232 161.4L228.506 161.486C231.152 163.358 234.529 164.031 237.642 163.175C237.712 163.175 237.782 163.186 237.846 163.218C238.522 163.057 239.156 162.809 239.752 162.481L239.832 162.341C240.444 162.018 241.024 161.642 241.582 161.233L241.743 161.222C241.775 161.4 241.813 161.588 241.829 161.766C242.012 163.514 242.205 165.36 242.307 167.108C242.344 167.716 242.344 168.303 242.307 168.911H242.312Z" fill="#EF9A61"/>
<path d="M245.951 149.413C246.048 149.773 245.994 150.198 245.994 150.564C245.989 152.103 245.763 153.48 245.431 154.976C245.2 155.057 245.012 155.234 244.862 155.503C244.164 156.461 243.488 157.462 242.827 158.506C242.629 158.823 242.57 158.92 242.323 158.635C241.711 157.93 241.077 157.247 240.396 156.606C240.074 156.3 239.601 155.896 239.22 155.676C239.011 155.552 238.941 155.519 238.689 155.546C236.687 155.186 234.609 155.315 232.591 155.487C232.022 155.536 230.653 155.724 230.336 156.219C229.886 157.397 229.392 158.57 228.855 159.749C228.721 160.109 228.222 159.684 228.034 159.523C227.132 158.646 226.348 157.661 225.677 156.569C225.334 156.009 224.926 155.552 224.453 155.197C224.249 154.454 224.147 153.825 223.997 153.066C223.89 152.528 223.702 151.974 223.632 151.436C223.46 150.134 223.519 148.719 223.278 147.422L223.358 147.121C224.142 145.463 224.883 143.806 225.565 142.149C225.999 141.041 226.874 141.024 227.916 141.068C229.064 141.191 230.213 141.358 231.367 141.568C232.741 141.627 234.115 141.568 235.49 141.39C236.767 141.45 237.878 141.191 239.043 140.686C239.676 140.336 241.276 140.373 241.84 140.815C242.21 141.105 242.618 142.423 242.741 142.908C242.886 143.72 243.021 144.42 243.45 145.146C244.346 146.523 245.195 147.911 245.994 149.305C246.005 149.348 245.973 149.386 245.941 149.418L245.951 149.413Z" fill="#F3A977"/>
<path d="M230.342 148.123C230.846 148.042 231.222 148.564 231.362 148.989C231.63 149.802 231.737 151.765 230.648 152.034C229.161 152.395 228.876 149.71 229.478 148.779C229.617 148.559 230.089 148.166 230.342 148.123Z" fill="black"/>
<path d="M240.003 147.814C240.524 147.728 241.066 148.244 241.098 148.739C241.104 148.836 241.05 148.922 241.055 148.997C241.109 149.605 241.211 150.224 241.023 150.832C240.803 151.558 240.116 151.962 239.563 151.273C238.972 150.536 238.763 149.347 239.209 148.497C239.348 148.233 239.692 147.867 240.003 147.814Z" fill="black"/>
<path d="M235.683 151.109C235.807 151.222 235.624 152.207 235.576 152.412C235.463 152.896 235.248 153.396 235.001 153.821C235.001 153.875 235.796 154.408 235.914 154.461C236.016 154.505 236.22 154.461 236.102 154.628C235.989 154.779 235.501 154.526 235.372 154.445C235.254 154.375 234.792 154.015 234.776 153.907C234.755 153.751 234.953 153.482 235.012 153.321C235.286 152.621 235.463 151.906 235.587 151.163C235.581 151.099 235.662 151.088 235.683 151.109Z" fill="#986A4B"/>
<path d="M245.43 154.965C245.221 155.917 244.969 156.864 244.668 157.784C244.523 158.225 244.013 158.666 243.755 159.016C243.052 159.963 242.73 160.474 241.748 161.217C241.179 161.647 240.39 162.158 239.756 162.476C239.161 162.809 238.522 163.051 237.851 163.213C237.099 163.369 236.348 163.568 235.58 163.606C232.864 163.746 230.395 162.965 228.237 161.389C227.518 160.862 226.643 160.211 226.165 159.447C225.993 159.167 225.918 158.855 225.773 158.58C225.553 158.155 225.29 157.752 225.097 157.305C224.786 156.595 224.668 155.912 224.469 155.18C224.689 155.131 224.813 155.32 224.947 155.465C226.095 156.724 227.024 158.747 228.414 159.672C228.463 159.705 228.699 159.834 228.736 159.829C228.994 159.226 229.295 158.639 229.547 158.037C229.762 157.526 230.041 156.503 230.309 156.111C230.663 155.594 232.199 155.438 232.816 155.363C233.847 155.239 234.85 155.217 235.886 155.223C236.922 155.228 237.679 155.25 238.661 155.438C238.78 155.46 238.914 155.422 239.037 155.449C239.161 155.476 239.585 155.804 239.713 155.901C240.787 156.708 241.662 157.746 242.558 158.742C243.149 157.897 243.686 157.009 244.276 156.164C244.41 155.971 245.092 155.002 245.221 154.938C245.301 154.9 245.366 154.911 245.436 154.959L245.43 154.965Z" fill="black"/>
<path d="M239.757 162.476C239.73 162.551 239.66 162.567 239.601 162.6C238.893 162.987 238.63 163.052 237.851 163.213C238.485 162.96 239.145 162.777 239.757 162.476Z" fill="#E49C6B"/>
<path d="M230.84 160.56C230.454 159.096 231.023 157.638 231.179 156.185C231.662 156.131 232.145 156.045 232.628 156.013C234.426 155.895 236.01 156.035 237.786 156.185C237.996 156.201 238.264 156.148 238.457 156.207C239.064 156.39 240.202 157.955 240.513 158.531C240.62 158.725 241.045 159.613 241.055 159.774C241.055 159.822 241.055 159.865 241.012 159.903C240.519 160.14 240.052 160.527 239.552 160.737C239.107 160.925 238.452 161.092 237.974 161.194C236.938 161.42 236.128 161.528 235.06 161.442C233.626 161.324 232.215 160.985 230.846 160.565L230.84 160.56Z" fill="#F3A978"/>
<path d="M232.467 157.023C233.492 156.969 234.507 157.06 235.527 157.098C236.337 157.13 237.142 157.076 237.947 157.189C238.2 157.27 237.899 157.588 237.803 157.684C236.879 158.642 235.559 159.551 234.179 159.094C233.739 158.949 231.973 157.819 231.667 157.485C231.619 157.432 231.426 157.168 231.517 157.114C231.576 157.076 232.327 157.028 232.462 157.017L232.467 157.023Z" fill="#FEFEFE"/>
</g>
<path d="M235.774 200.957C257.524 200.957 275.157 183.283 275.157 161.481C275.157 139.678 257.524 122.004 235.774 122.004C214.023 122.004 196.39 139.678 196.39 161.481C196.39 183.283 214.023 200.957 235.774 200.957Z" stroke="#F5AE58" stroke-width="2" stroke-miterlimit="10"/>
<path d="M161.816 199.698C182.986 199.698 200.147 182.496 200.147 161.277C200.147 140.058 182.986 122.856 161.816 122.856C140.647 122.856 123.486 140.058 123.486 161.277C123.486 182.496 140.647 199.698 161.816 199.698Z" fill="white"/>
<mask id="mask3_848_562" style="mask-type:luminance" maskUnits="userSpaceOnUse" x="123" y="122" width="78" height="78">
<path d="M161.816 199.695C182.986 199.695 200.147 182.494 200.147 161.274C200.147 140.055 182.986 122.853 161.816 122.853C140.647 122.853 123.486 140.055 123.486 161.274C123.486 182.494 140.647 199.695 161.816 199.695Z" fill="white"/>
</mask>
<g mask="url(#mask3_848_562)">
<path d="M173.412 142.268C173.48 142.336 173.495 142.446 173.522 142.535C173.845 143.604 174.013 144.792 174.211 145.834C174.196 145.955 174.154 145.95 174.122 145.834C173.997 144.656 173.736 143.41 173.412 142.268Z" fill="#888888"/>
<path d="M174.216 145.836C174.289 146.218 174.294 146.611 174.352 146.993C174.237 146.815 174.247 146.542 174.216 146.323C174.179 146.239 174.153 146.165 174.127 146.097C174.127 146.008 174.138 145.914 174.127 145.83H174.216V145.836Z" fill="#606060"/>
<path d="M174.126 146.102C174.273 146.07 174.199 146.207 174.215 146.328C174.079 146.359 174.131 146.223 174.126 146.102Z" fill="#171717"/>
<path d="M152.603 166.238L152.724 166.217C153.444 166.908 154.578 167.311 155.555 167.542C159.087 168.385 163.068 167.584 166.552 166.882C166.62 166.882 166.683 166.913 166.74 166.95L166.85 166.882C168.057 166.756 169.311 166.814 170.528 166.882C174.911 167.149 179.639 167.573 183.04 170.521C183.463 171.04 183.907 171.537 184.492 171.909C188.233 174.412 191.879 177.413 194.387 181.262C196.895 185.111 198.044 189.237 198.64 193.673C198.838 195.312 199.11 196.93 199.465 198.537L200.264 202.831C200.301 203.292 200.317 203.748 200.311 204.198H123.29C123.196 204.109 123.17 203.968 123.201 203.779C122.971 201.088 122.773 198.391 122.83 195.689C122.856 194.51 122.919 193.474 123.133 192.306C123.713 189.138 124.56 185.833 125.829 182.875C126.749 180.733 128.577 178.549 130.186 176.873C134.407 172.469 140.332 169.579 145.969 167.338C147.531 166.72 149.997 165.824 151.637 165.903C151.966 165.918 152.394 165.945 152.588 166.238H152.603Z" fill="#FFCADA"/>
<path d="M152.201 163.698C151.814 163.515 151.271 163.206 150.9 162.975C149.902 162.363 149.123 161.41 148.293 160.645C147.405 159.828 146.825 158.493 146.255 157.43C145.534 156.089 144.646 154.633 144.432 153.109C144.166 151.23 144.213 148.873 144.333 146.967C144.401 145.909 144.641 144.883 144.735 143.851C144.798 143.149 144.735 142.411 144.918 141.725C145.404 139.918 146.219 138.374 147.222 136.808C147.446 136.457 147.692 135.975 147.948 135.661C148.371 135.143 150.659 133.802 151.349 133.451C153.319 132.456 155.69 132.048 157.858 131.755L157.77 131.666C158.606 131.561 159.441 131.55 160.282 131.529C160.894 131.519 161.536 131.467 162.153 131.529C162.696 131.582 163.851 132.315 164.368 132.608C167.21 134.205 169.618 135.651 171.441 138.442C172.105 139.452 173.103 141.133 173.427 142.27C173.782 143.422 174.054 144.637 174.137 145.836C174.216 145.878 174.231 146.077 174.137 146.103C174.169 146.192 174.2 146.265 174.226 146.328C174.268 146.538 174.315 146.763 174.362 146.998C174.456 147.653 174.79 148.789 174.801 149.344C174.806 149.543 174.722 149.842 174.712 150.051C174.665 151.832 174.816 153.57 174.236 155.277C173.667 156.958 173.176 158.702 172.11 160.142C171.358 161.153 170.543 162.148 169.785 163.159C169.514 163.525 169.132 164.201 168.845 164.489C168.782 164.551 167.973 164.965 167.852 165.012C167.758 165.049 167.654 165.033 167.586 165.059C167.288 165.18 167.027 165.327 166.75 165.494C166.724 165.107 166.682 164.719 166.661 164.337C166.588 164.284 166.593 164.127 166.661 164.07L166.614 164.059C166.619 163.934 166.625 163.86 166.572 163.803C166.494 162.373 166.264 160.954 166.17 159.524L166.264 159.352C167.257 158.54 168.15 157.655 168.949 156.686L169.059 156.67C169.347 154.534 169.362 152.282 169.336 150.093L169.289 146.14L168.542 143.621C168.061 142.045 167.414 140.531 166.572 139.117C166.024 138.347 165.491 137.604 164.613 137.159C164.013 136.85 163.407 136.672 162.79 136.625L162.738 136.719C160.936 137.19 158.992 137.84 157.425 138.855C155.377 141.448 152.41 143.322 149.531 144.951C149.479 144.977 149.421 144.993 149.364 145.008C149.306 145.024 149.244 145.035 149.181 145.04C148.92 146.181 148.847 147.506 148.899 148.716C149.014 151.35 149.63 153.79 150.335 156.309C150.45 156.445 150.524 156.623 150.56 156.843L150.686 156.901C150.926 157.33 151.093 157.781 151.192 158.262L151.636 158.608L151.626 158.713L151.913 161.032C152.112 161.698 152.363 162.357 152.603 162.98C152.697 163.232 152.906 163.677 152.958 163.907C152.974 163.97 152.958 163.986 152.895 163.97C152.739 163.934 152.357 163.782 152.201 163.703V163.698Z" fill="black"/>
<path d="M166.561 163.788C166.702 163.752 166.644 163.93 166.649 164.055C166.634 164.176 166.592 164.171 166.561 164.055C166.561 163.966 166.561 163.877 166.561 163.788Z" fill="#452D1C"/>
<path d="M166.656 164.053C166.656 164.143 166.656 164.232 166.656 164.321C166.514 164.358 166.572 164.18 166.567 164.053H166.656Z" fill="#BD7A4C"/>
<path d="M166.563 139.103C167.937 141.203 168.622 143.69 169.316 146.125C169.327 149.587 169.484 153.054 169.139 156.499C169.149 156.578 169.071 156.614 169.05 156.656L169.316 152.938L169.264 146.215C168.543 143.79 167.901 141.276 166.511 139.145C166.474 139.077 166.485 139.056 166.558 139.098L166.563 139.103Z" fill="#B07B57"/>
<path d="M166.562 139.101L166.515 139.148C166.003 138.362 165.465 137.634 164.603 137.189C164.577 137.173 164.577 137.163 164.603 137.142C165.669 137.692 165.935 138.148 166.562 139.101Z" fill="#B17B57"/>
<path d="M164.61 137.142V137.189C164.286 137.021 163.105 136.587 162.786 136.608C162.828 136.54 162.959 136.555 163.032 136.561C163.513 136.618 164.176 136.917 164.61 137.142Z" fill="#B47D58"/>
<path d="M166.167 159.516L166.241 159.699C166.418 160.998 166.544 162.301 166.617 163.605L166.57 163.794C166.643 163.846 166.638 164.003 166.57 164.061L166.617 164.071C166.611 164.197 166.606 164.27 166.658 164.328C166.815 164.668 166.862 165.129 166.747 165.485C166.758 165.611 166.789 165.731 166.794 165.862C166.805 166.229 166.721 166.59 166.747 166.957C166.042 167.03 165.321 167.271 164.621 167.391C161.053 168.004 155.912 168.669 152.799 166.454C152.751 166.423 152.72 166.318 152.605 166.245C152.219 165.496 152.323 164.537 152.203 163.705C152.224 163.668 152.255 163.647 152.297 163.647L152.851 163.857C152.48 162.946 152.135 162.008 151.827 161.05L151.545 158.777L151.628 158.714L151.759 158.741C152.532 159.322 153.305 159.903 154.084 160.49C155.661 161.369 157.542 161.746 159.329 161.966C160.28 162.082 161.455 161.825 162.38 161.579C162.86 161.453 163.278 161.312 163.696 161.003C164.443 160.458 165.222 159.961 166.026 159.51L166.167 159.526V159.516Z" fill="#EF9A61"/>
<path d="M162.786 136.614C163.397 136.588 164.082 136.913 164.609 137.195C165.466 137.567 166.098 138.353 166.521 139.154C167.916 141.243 168.653 143.799 169.295 146.218L169.332 152.947C169.295 154.193 169.201 155.434 169.055 156.665C168.909 156.937 168.742 157.021 168.564 157.22C167.874 158.006 167.039 158.938 166.166 159.514C165.874 159.708 165.476 159.891 165.163 160.09C164.505 160.519 163.512 161.32 162.796 161.551C162.431 161.671 160.289 162.106 159.96 162.095C159.187 162.075 157.525 161.766 156.736 161.582C156.015 161.415 154.631 160.954 154.03 160.551C153.226 160.011 152.416 159.294 151.627 158.707C151.528 158.634 151.162 158.383 151.12 158.304C151.026 158.131 150.99 157.739 150.896 157.508C150.807 157.294 150.666 157.068 150.561 156.838C150.483 156.545 150.41 156.309 150.337 156.126C149.239 152.643 148.425 148.742 149.182 145.029C151.982 143.474 154.777 141.709 156.94 139.321C157.092 139.154 157.269 138.834 157.442 138.709C157.708 138.51 158.476 138.138 158.805 137.981C159.516 137.64 160.362 137.326 161.114 137.085C161.485 136.965 162.473 136.635 162.796 136.609L162.786 136.614ZM163.335 146.119C162.89 146.993 163.204 148.135 163.789 148.863C164.338 149.543 165.059 149.213 165.309 148.48C165.529 147.836 165.419 147.176 165.362 146.532C165.341 146.297 165.44 146.244 165.294 145.93C165.069 145.448 164.594 145.165 164.071 145.375C163.831 145.469 163.444 145.899 163.329 146.124L163.335 146.119ZM153.926 145.621C152.165 145.904 152.332 149.763 154.051 149.669C154.699 149.632 155.127 148.952 155.185 148.349C155.258 147.538 155.185 146.113 154.37 145.689C154.229 145.616 154.088 145.595 153.926 145.621ZM159.625 148.685C159.557 148.622 159.526 148.726 159.516 148.774C159.348 149.334 159.317 149.962 159.098 150.538C159.072 150.601 159.019 150.606 159.009 150.638C158.941 150.8 158.633 151.46 158.648 151.559C158.664 151.69 159.171 152.031 159.301 152.109C159.432 152.188 159.934 152.46 160.054 152.298C160.174 152.135 159.939 152.162 159.803 152.099C159.484 151.947 159.192 151.654 158.878 151.476C159.187 151.057 159.395 150.543 159.516 150.025C159.563 149.816 159.751 148.81 159.625 148.69V148.685ZM156.841 154.911C156.93 155.005 157.604 155.497 157.745 155.586C158.857 156.283 159.902 157.084 161.302 156.628C162.013 156.398 162.943 155.67 163.497 155.173C163.601 155.078 163.888 154.749 163.643 154.665C162.373 154.555 161.099 154.55 159.824 154.523C159.74 154.523 159.651 154.481 159.557 154.476C158.622 154.455 157.692 154.481 156.762 154.576C156.621 154.597 156.783 154.853 156.836 154.911H156.841Z" fill="#F3A977"/>
<path d="M149.177 145.033C149.109 145.484 149.041 145.939 149 146.395C148.77 149.045 149.078 151.155 149.689 153.679C149.856 154.365 150.285 155.491 150.337 156.13C150.405 156.156 150.415 156.292 150.337 156.308C149.412 153.548 148.738 150.254 148.869 147.332C148.895 146.72 148.968 145.735 149.094 145.149C149.104 145.091 149.115 145.054 149.182 145.039L149.177 145.033Z" fill="#78543B"/>
<path d="M150.333 156.127C150.463 156.101 150.416 156.19 150.432 156.269C150.479 156.457 150.542 156.646 150.552 156.84C150.469 156.656 150.39 156.478 150.328 156.306C150.328 156.248 150.328 156.185 150.328 156.127H150.333Z" fill="#9B6C4C"/>
<path d="M153.926 145.624C154.083 145.598 154.224 145.624 154.37 145.692C155.185 146.116 155.258 147.54 155.185 148.352C155.127 148.949 154.699 149.635 154.051 149.672C152.338 149.771 152.165 145.907 153.926 145.624Z" fill="black"/>
<path d="M163.335 146.116C163.45 145.891 163.837 145.461 164.077 145.367C164.6 145.157 165.075 145.44 165.3 145.922C165.446 146.236 165.347 146.288 165.368 146.524C165.42 147.168 165.535 147.833 165.316 148.472C165.065 149.205 164.344 149.535 163.795 148.854C163.21 148.127 162.897 146.985 163.341 146.11L163.335 146.116Z" fill="black"/>
<path d="M159.626 148.687C159.751 148.807 159.563 149.813 159.516 150.022C159.396 150.541 159.187 151.049 158.879 151.473C159.192 151.651 159.485 151.944 159.804 152.096C159.934 152.159 160.169 152.138 160.054 152.295C159.939 152.452 159.443 152.185 159.302 152.106C159.161 152.028 158.665 151.687 158.649 151.557C158.633 151.462 158.942 150.797 159.01 150.635C159.025 150.604 159.077 150.598 159.098 150.535C159.318 149.959 159.349 149.331 159.516 148.771C159.532 148.724 159.558 148.619 159.626 148.682V148.687Z" fill="#986A4B"/>
</g>
<path d="M161.816 199.698C182.986 199.698 200.147 182.496 200.147 161.277C200.147 140.058 182.986 122.856 161.816 122.856C140.647 122.856 123.486 140.058 123.486 161.277C123.486 182.496 140.647 199.698 161.816 199.698Z" stroke="#F5AE58" stroke-width="2" stroke-miterlimit="10"/>
<path d="M134.029 83.099C155.338 83.099 172.613 65.7838 172.613 44.4245C172.613 23.0652 155.338 5.75 134.029 5.75C112.72 5.75 95.446 23.0652 95.446 44.4245C95.446 65.7838 112.72 83.099 134.029 83.099Z" fill="white"/>
<mask id="mask4_848_562" style="mask-type:luminance" maskUnits="userSpaceOnUse" x="95" y="5" width="78" height="79">
<path d="M134.029 83.1055C155.338 83.1055 172.613 65.7904 172.613 44.4311C172.613 23.0717 155.338 5.75659 134.029 5.75659C112.72 5.75659 95.446 23.0717 95.446 44.4311C95.446 65.7904 112.72 83.1055 134.029 83.1055Z" fill="white"/>
</mask>
<g mask="url(#mask4_848_562)">
<path d="M97.1716 84.334V81.8091C97.1505 82.6367 97.1611 83.5011 97.1716 84.334Z" fill="#C8E1EE"/>
<path d="M127.015 51.472L127.126 51.4509C127.767 52.2205 128.993 52.6528 129.971 52.8952C133.52 53.7597 137.57 52.9321 141.067 52.1942C141.13 52.1942 141.188 52.2258 141.24 52.268C142.271 52.1573 143.444 52.2363 144.48 52.268C146.783 52.3418 149.428 52.6422 151.684 53.1324C153.504 53.5278 155.959 54.6242 157.348 55.8682C157.905 56.3689 158.3 56.9277 158.915 57.4284C159.835 58.1717 160.866 58.7831 161.776 59.5632C163.963 61.4292 165.94 63.1529 167.697 65.4564C168.927 67.0747 169.948 68.9143 170.794 70.7644C172.687 74.8812 173.008 79.3775 173.755 83.7842C174.028 85.4025 174.412 87.0049 174.665 88.6231C174.807 89.5298 174.88 90.4417 175.001 91.3483H97.5928C97.5876 91.1849 97.6033 91.0215 97.5928 90.8581C97.4298 88.6548 97.2037 86.5568 97.1721 84.3377V81.8128C97.2405 79.3723 98.0451 76.2254 98.6393 73.8217C99.8541 68.8932 101.689 65.6989 105.192 62.067C109.188 57.9134 116.514 54.1445 121.925 52.1942C123.061 51.783 125.964 50.8237 127.021 51.4826L127.015 51.472Z" fill="#100B2D"/>
<path d="M140.635 43.8093L141.24 50.3297C141.293 50.9781 141.272 51.6212 141.24 52.2695C140.562 52.3433 139.794 52.5963 139.105 52.7229C135.613 53.3501 130.212 54.0617 127.22 51.7424C127.173 51.7055 127.073 51.5105 127.02 51.4789C126.894 51.1995 126.836 50.9148 126.794 50.6091C126.731 50.1716 126.747 49.6919 126.694 49.2597C126.495 47.536 126.253 45.8176 126.09 44.094C126.242 43.9833 126.353 44.2152 126.468 44.2995C126.8 44.542 127.299 44.9479 127.646 45.1271C129.119 45.8967 132.148 46.4396 133.815 46.5609C134.866 46.6399 136.244 46.0706 137.327 45.981C138.332 45.4908 139.31 44.9004 140.172 44.2099C140.33 44.0834 140.483 43.9358 140.635 43.8093Z" fill="#EF9A61"/>
<path d="M145.158 31.2806C145.258 31.6707 145.206 32.1293 145.2 32.5193C145.19 34.8281 144.664 37.9381 143.791 40.0834C143.502 40.795 142.671 41.6859 142.198 42.3184C142.103 42.4396 142.035 42.6505 141.94 42.7612C141.703 43.0247 140.951 43.5519 140.636 43.8101L140.594 43.9683C139.937 44.5639 139.179 45.07 138.406 45.518C137.823 45.8554 137.323 46.14 136.65 46.1822C135.34 46.5459 134.31 46.7356 132.953 46.5722C130.555 46.2823 127.841 45.7921 126.09 44.0948C126.09 44.0315 126.064 43.9999 126.022 43.9525C125.691 43.6098 125.002 43.3199 124.649 42.9878C123.876 42.2657 122.846 39.9411 122.478 38.9027C122.293 38.3756 121.999 37.6007 121.868 37.0841C121.72 36.499 121.662 35.8191 121.541 35.2129C121.421 34.6067 121.226 34.0374 121.152 33.4576C121.079 32.8778 121.105 32.2769 121.052 31.6865C120.979 30.8378 120.826 29.9892 120.821 29.1405C120.826 28.9929 120.853 28.8506 120.9 28.7135C121.726 26.9846 122.499 25.2504 123.214 23.5162C123.692 22.288 124.607 22.2564 125.77 22.3038C127.005 22.4356 128.241 22.6201 129.482 22.8415C130.96 22.9047 132.438 22.8415 133.915 22.6517C135.288 22.715 136.487 22.4409 137.738 21.8927C138.417 21.5184 140.147 21.5606 140.746 22.0297C141.141 22.3407 141.588 23.7587 141.719 24.2805C141.872 25.1555 142.019 25.9093 142.482 26.6894C143.434 28.1654 144.343 29.6518 145.211 31.1383C145.237 31.1963 145.211 31.2437 145.164 31.2859L145.158 31.2806Z" fill="#F3A977"/>
<path d="M133.441 37.5548C133.815 37.5232 134.504 37.6655 134.898 37.7498C135.666 37.9132 137.706 38.6248 138.064 39.347C138.253 39.7265 138.101 40.0533 137.669 40.106C137.238 40.1587 136.229 39.8899 135.787 39.7582C135.382 39.6422 134.725 39.289 134.399 39.231C134.262 39.2047 134.104 39.2785 133.941 39.2732C133.725 39.2627 133.289 39.1572 133.105 39.1783C132.979 39.1889 131.348 40.4118 130.986 40.6068C130.623 40.8018 129.902 41.1708 129.539 40.8387C129.066 40.4012 129.866 39.6422 130.192 39.347C131.007 38.5985 132.321 37.6602 133.447 37.5601L133.441 37.5548Z" fill="#F3E7E2"/>
<path d="M128.357 29.8894C128.904 29.7997 129.304 30.3638 129.456 30.8223C129.74 31.6974 129.861 33.8111 128.688 34.101C127.09 34.4911 126.785 31.6025 127.426 30.5957C127.579 30.3585 128.084 29.9368 128.357 29.8894Z" fill="black"/>
<path d="M138.759 29.5628C139.316 29.468 139.905 30.0267 139.937 30.5644C139.942 30.6698 139.884 30.7594 139.889 30.8385C139.942 31.4974 140.057 32.1563 139.858 32.8151C139.621 33.5953 138.885 34.0328 138.285 33.2895C137.649 32.4989 137.423 31.218 137.907 30.3008C138.054 30.0162 138.427 29.6208 138.759 29.5681V29.5628Z" fill="black"/>
<path d="M134.105 33.1005C134.236 33.2218 134.041 34.2813 133.989 34.5027C133.868 35.0245 133.637 35.5622 133.368 36.0208C133.368 36.0787 134.226 36.6533 134.352 36.7113C134.457 36.7587 134.678 36.7113 134.552 36.8905C134.431 37.0539 133.905 36.7798 133.768 36.6902C133.642 36.6111 133.142 36.2263 133.126 36.1104C133.105 35.9417 133.316 35.6571 133.384 35.4831C133.679 34.7293 133.868 33.9597 134.005 33.1585C133.994 33.09 134.084 33.0795 134.11 33.1005H134.105Z" fill="#986A4B"/>
<path d="M120.395 23.6614C120.558 22.7811 121.82 20.4196 122.335 19.5973C123.371 17.9369 125.38 16.1974 127.336 15.8232C130.071 15.2961 131.99 15.5016 134.693 15.8021C135.671 15.9075 136.649 15.9497 137.622 16.0446C138.726 16.15 140.535 16.83 141.377 17.5626C142.16 18.2426 143.096 19.1704 143.68 20.019C144.374 21.0311 144.558 21.5266 144.727 22.7547C144.848 23.6666 144.89 24.5891 145.021 25.4957C145.105 26.0914 145.437 27.1931 145.431 27.6991C145.431 27.9363 145.263 28.2684 145.242 28.5372C145.221 28.7797 145.289 28.98 145.295 29.1908C145.305 29.9288 145.284 30.672 145.295 31.4152L145.153 31.2729C145.037 30.8354 144.017 29.3595 143.717 28.8587C143.302 28.1682 142.949 27.5726 142.502 26.8979C141.708 25.696 141.855 25.0319 141.482 23.7615C141.377 23.4031 140.935 22.3172 140.677 22.0906C140.451 21.8903 139.347 21.711 139.021 21.6952C138.201 21.6636 136.749 22.4279 135.834 22.6177C135.182 22.7495 134.667 22.6862 134.03 22.7231C132.611 22.8127 131.396 23.0288 129.923 22.9603C128.877 22.9129 127.867 22.644 126.842 22.4965C126.095 22.391 124.691 22.2329 124.018 22.5913C123.345 22.9498 122.898 24.5417 122.593 25.2269C122.009 26.5289 121.352 27.8098 120.81 29.1223C120.542 29.2435 120.642 28.9273 120.621 28.7744C120.51 27.8414 120.09 25.7382 120.2 24.9159C120.421 24.5575 120.515 24.0514 120.384 23.6561L120.395 23.6614Z" fill="#F3E7E2"/>
<path d="M120.395 23.6619C120.505 23.6356 120.5 23.7199 120.51 23.7989C120.573 24.1837 120.484 24.6371 120.205 24.9217C120.226 24.7794 120.321 24.6371 120.342 24.4737C120.374 24.189 120.342 23.9624 120.395 23.6619Z" fill="#F6EEEA"/>
</g>
<path d="M134.029 83.099C155.338 83.099 172.613 65.7838 172.613 44.4245C172.613 23.0652 155.338 5.75 134.029 5.75C112.72 5.75 95.446 23.0652 95.446 44.4245C95.446 65.7838 112.72 83.099 134.029 83.099Z" stroke="#F5AE58" stroke-width="2" stroke-miterlimit="10"/>
<path d="M58.6482 108.605C82.2021 108.605 101.296 89.4655 101.296 65.8559C101.296 42.2463 82.2021 23.1069 58.6482 23.1069C35.0942 23.1069 16 42.2463 16 65.8559C16 89.4655 35.0942 108.605 58.6482 108.605Z" fill="white"/>
<mask id="mask5_848_562" style="mask-type:luminance" maskUnits="userSpaceOnUse" x="16" y="23" width="86" height="86">
<path d="M58.6482 108.605C82.2021 108.605 101.296 89.4655 101.296 65.8559C101.296 42.2463 82.2021 23.1069 58.6482 23.1069C35.0942 23.1069 16 42.2463 16 65.8559C16 89.4655 35.0942 108.605 58.6482 108.605Z" fill="white"/>
</mask>
<g mask="url(#mask5_848_562)">
<path d="M48.0907 78.9832L48.2186 78.9599C48.9684 79.8572 50.3983 80.3641 51.5376 80.6437C55.6705 81.6517 60.3963 80.6845 64.471 79.828C64.5466 79.828 64.6105 79.8688 64.6686 79.9096L64.7907 79.8222C66.6101 79.6649 68.5167 79.7523 70.3651 79.8979C75.6257 80.3174 81.2582 81.1332 84.7866 85.3341L85.269 85.7769C88.2742 87.9327 91.2213 90.2807 93.7556 93.025C98.0571 97.6862 100.702 103.594 101.626 109.852C102.248 113.995 102.922 118.131 103.742 122.262C103.911 123.311 104.067 124.407 104.027 125.455H13.7896L13.6792 125.339C13.4757 122.763 13.3304 120.165 13.249 117.549L13.3014 117.281V114.338C13.2723 114.292 13.249 114.239 13.249 114.193C13.2374 112.41 13.6094 110.639 13.9756 108.902C14.4523 106.642 15.0219 104.235 15.7602 102.044C19.5908 90.6828 30.0246 84.6291 40.5341 80.3058C42.243 79.6008 44.3763 78.8433 46.1841 78.6511C46.7596 78.5928 47.7128 78.4996 48.0849 78.9832H48.0907Z" fill="#524E68"/>
<path d="M42.7596 64.2173C42.6724 64.5902 42.6899 65.0563 42.7015 65.4467C42.7829 68.1444 43.306 69.3097 44.2012 71.7393C44.2535 71.8733 44.3232 72.1588 44.3116 72.2812C43.492 71.3897 42.9456 70.2011 42.4283 69.1058C41.4692 67.0723 40.9286 65.1612 40.452 62.9646C40.2776 62.1547 40.2078 61.2866 39.9869 60.4884C39.8242 59.8999 39.4347 59.259 39.3475 58.6822C38.9639 56.136 38.9464 53.45 39.3475 50.9038C39.5742 49.488 40.0102 48.0896 40.3241 46.7029C40.8588 44.314 43.2421 41.7329 45.0789 40.1889C46.381 39.0993 48.148 38.3419 49.7291 37.7126C50.1999 37.5262 51.1997 37.0775 51.6589 37.0309C53.8562 36.792 56.3731 37.3572 58.5645 37.5786C59.1864 37.6427 59.8491 37.631 60.4653 37.6893C61.7034 37.8058 62.7903 38.272 63.9006 38.8255C65.0108 39.379 66.8128 41.2843 67.5045 42.2922C68.1962 43.3002 68.4927 43.8712 68.6845 45.089C68.9577 46.8252 69.0391 48.5324 69.3704 50.2862C69.9575 53.4208 70.3469 56.5264 70.4457 59.7251C70.5213 62.1489 70.2539 64.4562 70.0621 66.8684C70.004 67.5909 70.033 68.3833 69.9517 69.0999C69.8761 69.7816 69.3878 72.2928 69.0681 72.7939C69.0274 72.8638 69.0158 72.9104 68.917 72.8871C68.917 72.6599 68.9112 72.4327 68.917 72.2055C68.9867 69.5427 68.8414 66.6528 68.7019 63.9784C68.6729 63.4715 68.6787 62.9588 68.6496 62.4519L68.5392 62.5859C68.4694 62.6617 68.452 62.6209 68.4868 62.4752C68.4229 62.2072 68.4171 61.9159 68.4694 61.6012C68.3648 60.2145 68.2485 58.822 68.1265 57.4353C68.0741 57.0333 68.1555 56.707 68.3706 56.4506C68.3938 56.1651 68.4345 55.8854 68.481 55.6116C68.3357 55.5999 68.3183 55.5125 68.4287 55.3378C68.3473 55.1513 68.2718 54.9649 68.2369 54.7609L67.7486 51.8535C65.3538 49.2024 62.7787 46.4174 59.5236 44.8326C56.1231 43.1779 51.3509 43.4867 48.1829 45.456C47.0204 46.1785 45.852 46.9534 44.9626 47.9847C44.6894 48.2994 43.2363 50.1464 43.1898 50.426C43.0851 51.5447 43.0096 52.6692 42.9631 53.7937L42.8875 53.9161C43.0212 54.0792 43.0212 54.1899 42.8875 54.2424C42.9398 54.3822 42.9689 54.5221 42.9747 54.6735C42.7364 57.8432 42.7015 60.9894 42.8701 64.1124L42.7771 64.2115L42.7596 64.2173Z" fill="#F3E7E2"/>
<path d="M64.4474 45.4737C64.3718 45.4504 64.18 45.2581 64.2323 45.1999C64.3021 45.13 64.4764 45.3747 64.4474 45.4737Z" fill="#F3CBB2"/>
<path d="M65.046 46.9426L65.0168 47.1063C64.9586 47.0537 64.9177 47.0245 64.9352 46.9426H65.046Z" fill="#F3D1BD"/>
<path d="M63.9599 70.0449L64.6632 77.6485C64.7214 78.4059 64.6981 79.1517 64.6632 79.9092C63.8727 79.9966 62.9775 80.2937 62.1754 80.4394C58.1065 81.1677 51.8054 82.0009 48.3178 79.2974C48.2597 79.2566 48.1492 79.0294 48.0853 78.9886C47.9341 78.6623 47.8702 78.3302 47.8179 77.9748C47.7481 77.4679 47.7598 76.9027 47.7016 76.4016C47.4691 74.3973 47.1901 72.393 46.9983 70.3829C47.0448 70.0566 47.3645 70.3712 47.4866 70.5227C49.492 72.2473 52.532 72.7659 55.1245 73.0689C56.6416 73.2495 57.8042 72.999 59.269 72.6028C59.9258 72.562 60.3734 72.3406 60.9547 72.0201C61.9545 71.4666 62.9252 70.8315 63.7681 70.0741L63.9599 70.0566V70.0449Z" fill="#EF9A61"/>
<path d="M68.4184 55.3316L68.3894 55.518C68.2673 55.7161 67.5349 56.7532 67.4361 56.7882C67.4012 56.7999 67.3663 56.7999 67.3314 56.8057C67.2675 56.8406 67.2501 56.7882 67.2791 56.6425C67.1803 56.4503 67.1338 56.2172 67.1512 55.9434C65.7155 48.9108 55.5025 51.4104 58.1647 58.3963C58.1415 58.4429 58.1008 58.4721 58.0601 58.5012C57.9962 58.5478 56.6534 58.3264 56.4674 58.2856L56.4093 58.1691C56.3105 58.1574 56.2698 58.0584 56.293 57.8719C56.293 58.1458 56.1593 58.1458 55.921 58.1166C55.7292 58.2623 54.8456 58.1866 54.7061 58.0467C56.4907 51.1889 47.0391 49.4643 45.1616 55.8327C45.1093 55.9609 44.9989 55.9842 44.8884 55.9026L42.9818 54.1605C42.9295 54.0847 42.9004 54.0031 42.8772 53.9157C42.9295 52.832 42.9179 51.5735 43.04 50.5131C43.0806 50.1751 44.0223 49.0098 44.2897 48.6603C44.5571 48.3107 44.8884 47.862 45.1849 47.5416C45.8708 46.7958 48.4749 45.0187 49.4224 44.6516C50.3175 44.3079 51.701 43.9233 52.6368 43.7893C54.9619 43.4688 57.2928 43.6611 59.4145 44.6575C62.6289 46.1724 65.5179 49.1613 67.8313 51.8007C68.0522 52.9719 68.2557 54.143 68.4184 55.3258V55.3316Z" fill="#F3A978"/>
<path d="M56.0257 58.548C56.0489 58.583 56.0664 58.6179 56.0838 58.6587C56.2059 59.0025 55.6014 60.4299 55.3688 60.8669C55.2003 61.2107 56.0315 61.7001 56.3279 61.8225C56.5081 61.8982 56.979 62.0031 56.6011 61.8749C56.4151 61.7817 55.3747 61.1291 55.4037 60.966C55.7699 60.2726 56.0489 59.5385 56.2059 58.7694L56.357 58.6063L56.45 58.5072C56.8337 58.5247 58.3101 58.6645 58.5484 58.8685C60.9491 62.2769 66.3549 61.4088 67.1397 57.1613C67.6163 56.7301 68.029 56.229 68.3778 55.658L68.4824 55.6056C68.5173 55.8736 68.5347 56.1708 68.4824 56.4505C68.4475 56.6194 68.2906 56.5961 68.2615 56.8816C68.0871 58.6354 68.8312 60.8436 68.4824 62.4692C68.4766 62.5799 68.4766 62.6906 68.4824 62.7955C68.2441 64.4561 67.593 65.9418 66.6223 67.2819C66.3375 67.6723 65.7737 68.5055 65.4888 68.8201C65.204 69.1347 64.3379 69.7407 63.9659 70.0437C63.7857 70.1893 63.6055 70.3641 63.4253 70.5098C62.4197 71.3197 61.2804 72.0072 60.1062 72.5782C58.8449 72.6831 57.2347 73.3473 56.0082 73.2541C54.061 73.1084 50.5326 72.4791 48.8179 71.5819C48.4168 71.3721 47.8355 70.9002 47.4461 70.6147C47.3124 70.5156 47.1845 70.2418 47.0043 70.3758C47.0043 70.3 46.9752 70.2651 46.9229 70.2126C46.5393 69.8106 45.7371 69.4785 45.3244 69.0881C44.7083 68.5113 44.4234 67.8005 44.063 67.0838C43.6445 66.2623 42.9528 65.0911 42.7668 64.2172C42.7435 64.1065 42.7203 63.8734 42.7087 63.7569C42.511 60.7562 42.7377 57.2662 42.8714 54.248L43.0284 54.2947C43.691 54.8831 44.3653 55.4658 45.0512 56.0426L45.0919 56.3398C44.4699 61.9973 52.3753 63.2034 54.433 58.3441C54.4679 58.2916 54.5086 58.2392 54.5667 58.2101C54.6829 58.1518 55.7757 58.3732 55.9734 58.4315L56.0315 58.5538L56.0257 58.548Z" fill="#F3A978"/>
<path d="M68.5292 62.578C68.5467 62.712 68.4827 62.747 68.4769 62.7936L68.3665 62.7644C68.3665 62.6596 68.4595 62.543 68.4769 62.4673C68.4769 62.5081 68.5292 62.5605 68.5292 62.578Z" fill="#F4CBB0"/>
<path d="M59.9898 65.3683C59.9898 65.3683 60.0479 65.4906 60.0479 65.5023C60.0479 65.5314 59.92 65.578 59.8851 65.6247C59.0016 66.8249 58.3738 67.7222 56.8683 68.2524C55.171 68.8525 53.433 68.1767 52.2995 66.8366C52.189 66.7084 51.5845 65.8635 51.5671 65.7703C51.5438 65.6596 52.1309 65.5839 52.2414 65.578C54.3281 65.4499 56.4614 65.4033 58.5482 65.3625C58.74 65.3625 59.9316 65.3217 59.9839 65.3683H59.9898Z" fill="#F3E7E2"/>
<path d="M56.3511 58.5981C56.1709 59.4196 55.9384 60.247 55.4908 60.9695C55.4908 61.0394 56.4906 61.7094 56.6359 61.7735C56.7231 61.8143 57.0893 61.8318 56.8393 62.0066C56.6301 62.1523 55.979 61.7794 55.7872 61.6395C55.6826 61.5638 55.2176 61.1501 55.206 61.0743C55.1769 60.8821 55.4268 60.5441 55.5024 60.3402C55.7291 59.7634 55.9384 59.1633 56.0197 58.5457C56.1302 58.5631 56.2406 58.5864 56.3453 58.5981H56.3511Z" fill="#97694A"/>
<path d="M55.9145 58.1121C56.0075 58.1063 56.1005 58.1646 56.147 58.048C56.1703 57.9956 56.1993 57.4304 56.3446 57.5703C56.4144 57.6344 56.397 58.0539 56.397 58.1704C56.2342 58.1529 56.0598 58.1354 55.9087 58.118L55.9145 58.1121Z" fill="#9D6D4D"/>
<path d="M67.2781 56.6413C67.249 56.8568 67.2665 56.9151 67.3304 56.8044C67.7199 56.3383 67.9989 55.7731 68.4174 55.3361C68.429 55.4352 68.4581 55.5226 68.4697 55.61C68.493 55.7323 68.4232 55.7789 68.3651 55.8605C68.1093 56.2392 67.7838 56.6529 67.4932 57.0025C67.4176 57.0899 67.2432 57.1831 67.2142 57.2297C67.1444 57.3404 67.127 57.6667 67.0688 57.8357C65.854 61.4889 61.3433 62.1473 58.7915 59.403C58.6985 59.2981 58.4834 58.9486 58.4137 58.9136C58.123 58.7679 56.7745 58.6805 56.3501 58.6164C56.2222 58.7446 56.106 58.7271 56.0246 58.564C55.8212 58.5349 54.6877 58.2785 54.6121 58.3135C54.554 58.3426 54.4842 58.4766 54.4552 58.5407C52.351 63.1203 45.1373 62.1997 44.9339 57.119C44.9223 56.7636 45.0211 56.4431 44.963 56.111C44.2131 55.5517 43.5505 54.8991 42.8704 54.2582C42.8704 54.1708 42.8704 54.0601 42.8704 53.9319L45.0153 55.8896C45.1606 55.61 45.1896 55.3012 45.3292 55.004C45.9802 53.6231 47.1718 52.4637 48.6424 52.0034C52.5428 50.7915 56.0595 54.0543 54.7749 58.0105C55.1527 58.0746 55.5363 58.0746 55.9142 58.1212H56.0944C56.1699 57.9814 56.3327 58.028 56.4024 58.1736C56.6175 58.2028 58.0242 58.4475 58.0881 58.3892C56.3443 54.5437 59.5995 50.7157 63.6858 51.8227C65.7319 52.3763 67.4118 54.4738 67.2723 56.6471L67.2781 56.6413Z" fill="black"/>
<path d="M67.3317 56.8023C67.3026 56.8374 67.2909 56.9134 67.221 56.9134C67.1685 56.814 67.2735 56.6796 67.2735 56.6387L67.3259 56.8023H67.3317Z" fill="#76523A"/>
<path d="M59.9711 52.5876C62.4938 50.8805 66.121 52.4886 66.7604 55.4426C67.2719 57.814 65.7664 60.1563 63.3715 60.6049C58.7271 61.4672 55.7917 55.4193 59.9711 52.5935V52.5876Z" fill="#F3A978"/>
<path d="M62.046 54.3137C62.7668 54.1914 63.2318 54.774 63.3538 55.4324C63.5108 56.3122 63.6212 58.235 62.8772 58.8526C61.7147 59.8198 60.8311 57.7397 60.7555 56.8366C60.6858 55.9859 61.0404 54.4885 62.046 54.3196V54.3137Z" fill="black"/>
<path d="M49.7061 52.0232C53.4669 51.6678 55.949 55.3793 54.0191 58.6887C52.2927 61.6544 47.7007 62.1438 45.8638 59.0499C44.027 55.9561 46.387 52.332 49.7003 52.0232H49.7061Z" fill="#F3A978"/>
<path d="M49.6534 54.1433C51.0252 54.0559 51.1007 56.369 51.0252 57.3187C50.8973 58.9268 49.229 59.7251 48.4036 58.0878C47.7991 56.8876 47.9037 54.254 49.6534 54.1433Z" fill="black"/>
</g>
<path d="M58.6482 108.605C82.2021 108.605 101.296 89.4655 101.296 65.8559C101.296 42.2463 82.2021 23.1069 58.6482 23.1069C35.0942 23.1069 16 42.2463 16 65.8559C16 89.4655 35.0942 108.605 58.6482 108.605Z" stroke="#F5AE58" stroke-width="2" stroke-miterlimit="10"/>
<path d="M287.23 104.477C315.72 104.477 338.815 81.3266 338.815 52.7696C338.815 24.2126 315.72 1.0625 287.23 1.0625C258.74 1.0625 235.645 24.2126 235.645 52.7696C235.645 81.3266 258.74 104.477 287.23 104.477Z" fill="white"/>
<mask id="mask6_848_562" style="mask-type:luminance" maskUnits="userSpaceOnUse" x="235" y="1" width="104" height="104">
<path d="M287.23 104.477C315.72 104.477 338.815 81.3266 338.815 52.7696C338.815 24.2126 315.72 1.0625 287.23 1.0625C258.74 1.0625 235.645 24.2126 235.645 52.7696C235.645 81.3266 258.74 104.477 287.23 104.477Z" fill="white"/>
</mask>
<g mask="url(#mask6_848_562)">
<path d="M278.833 57.5944C278.96 57.5309 279.065 57.5944 279.143 57.7635C282.799 60.3711 287.559 59.9412 291.763 59.2858L296.277 58.5035C296.467 58.4401 296.607 58.4753 296.685 58.5951C296.762 58.4965 296.825 58.4894 296.889 58.5881C297.071 59.328 297.571 59.9482 298.063 60.5332C299.905 62.6615 301.937 65.0576 302.478 67.9189C302.942 70.3784 302.345 72.8873 301.691 75.2694C303.209 73.1904 304.651 71.0479 306.008 68.8491C307.871 65.9103 306.922 62.3937 305.86 59.321C305.839 59.2153 305.846 59.1096 305.874 59.0039C305.93 58.9827 305.994 58.9616 306.05 58.9545C306.106 58.9475 306.162 58.9334 306.218 58.9404C308.328 59.2294 310.381 59.5113 312.363 60.2794C314.599 61.1463 316.751 62.436 318.255 64.3106C319.521 65.3536 320.829 66.3473 322.185 67.2987L324.035 68.9901C330.658 74.0149 335.017 81.7953 336.346 90.0055C337.021 94.6146 337.808 99.2095 338.694 103.797C338.891 105.052 339.066 106.306 339.052 107.575H241.901L241.781 107.455C241.563 104.678 241.401 101.888 241.303 99.0685L241.373 98.7796V95.6082L241.303 95.4321C241.465 92.5356 242.126 89.5545 242.801 86.7144C243.736 82.7537 244.945 79.0186 247.314 75.657C252.447 68.3699 259.949 63.5988 268.069 60.1033C268.273 60.0187 268.491 59.9764 268.709 59.9412L268.808 60.2301C268.653 62.739 269.581 65.0365 270.586 67.2776C271.592 69.5186 272.766 72.0487 274.193 74.1629C274.826 74.9311 275.627 75.7838 274.615 74.4307C272.576 71.3933 272.85 68.7787 273.968 65.4946L275.438 61.4564C275.937 60.1033 276.323 58.7149 276.612 57.3054C276.71 57.0306 278.405 57.2068 278.686 57.39C278.763 57.4393 278.798 57.5169 278.841 57.6014L278.833 57.5944Z" fill="#AFD3E6"/>
<path d="M295.925 48.1533C296.192 51.6277 296.755 55.102 296.684 58.5976C296.502 58.5764 296.164 58.6398 295.967 58.6751C290.722 59.5701 283.804 61.2827 279.086 57.8787C279.023 57.8294 278.988 57.7025 278.833 57.6039C278.819 57.329 278.65 57.0753 278.601 56.8075C278.475 56.1169 278.503 55.2853 278.418 54.5805C278.179 52.5015 277.884 50.4225 277.715 48.3295C277.638 47.8925 278.06 48.2519 278.207 48.4422C279.951 49.9926 282.348 50.486 284.605 50.8947C286.244 51.1907 287.84 51.4726 289.436 50.944C291.854 50.7679 294.013 49.5487 295.728 47.8643C295.869 47.8009 295.932 47.8996 295.918 48.1603L295.925 48.1533Z" fill="#EF9A61"/>
<path d="M241.373 98.7734V95.6021C241.345 96.638 241.359 97.7304 241.373 98.7734Z" fill="#C8E1EE"/>
<path d="M305.873 59.0048C306.647 61.1754 307.322 63.5011 307.16 65.8408C306.998 68.1806 304.882 70.8586 303.595 72.7121C303.054 73.4943 302.491 74.4669 301.915 75.1928C301.795 75.3407 301.641 75.4958 301.479 75.6085C301.704 74.6924 301.978 73.7903 302.161 72.8601C303.103 68.1876 302.161 65.8619 299.37 62.2607C298.653 61.3375 297.394 60.1183 296.923 59.0823C296.825 58.8638 296.881 58.6101 296.684 58.589C296.628 58.4199 296.579 58.2507 296.572 58.0745C296.452 54.9243 296.213 51.7953 295.847 48.6662C295.847 48.49 295.875 48.3138 295.925 48.1447C295.812 47.8769 295.882 47.6796 296.122 47.5386C297.261 46.8198 297.985 45.8613 298.751 44.7196C299.785 43.1692 300.565 41.4708 300.671 39.5962C300.579 37.6722 300.586 35.7342 300.671 33.775C300.741 31.9638 300.122 30.209 299.503 28.5246C299.004 27.1645 298.709 26.7205 297.675 25.755C294.954 23.2109 291.509 20.0395 287.663 19.6942C283.754 19.3489 280.998 19.9972 277.743 22.1819C275.922 23.4011 274.734 24.86 273.56 26.6571C272.885 29.1237 272.266 31.8087 272.224 34.4022C272.189 36.2909 272.582 37.8343 273.103 39.6032C273.131 40.5405 273.173 41.2312 273.489 42.1262C274.059 43.7401 274.846 45.4596 275.95 46.7634L277.68 47.9826C277.771 48.0813 277.778 48.194 277.715 48.3209C277.792 48.5323 277.863 48.7437 277.891 48.9692C278.214 51.612 278.495 54.2971 278.741 56.8765L278.938 57.4825L278.833 57.5812C278.348 57.2711 277.237 57.1654 276.695 57.3416C276.21 60.2451 274.931 62.9161 274.024 65.6858C272.85 69.2588 272.758 71.0066 274.699 74.3118C274.86 74.5867 275.156 74.9109 275.275 75.1434C275.324 75.2351 275.353 75.2985 275.331 75.4112C275.219 75.4394 275.191 75.3478 275.128 75.2914C273.349 73.8326 272.118 70.619 271.092 68.547C269.777 65.9042 268.448 62.9725 268.722 59.928C269.046 56.3268 270.48 52.7678 269.819 49.0609C269.327 46.3265 267.302 44.7619 266.023 42.4222C263.681 38.1444 264.736 34.1344 265.959 29.7227C266.311 28.4682 266.48 27.5027 267.035 26.2835C268.202 23.7535 270.143 20.4271 272.146 18.5032C273.496 17.1994 276.667 14.5778 278.397 14.0281C280.246 13.4361 284.064 13.2669 286.018 13.4008C288.549 13.57 291.488 13.9858 293.815 14.9724C296.009 15.9027 299.307 17.5659 301.064 19.1515C302.274 20.2439 303.877 23.3448 304.601 24.8811C307.427 30.9137 306.787 37.2353 305.529 43.5709C304.889 46.7986 303.588 50.8862 304.214 54.128C304.544 55.8264 305.325 57.3698 305.894 58.9836L305.873 59.0048Z" fill="#F3E7E2"/>
<path d="M296.445 21.4544C296.361 21.4262 296.157 21.2218 296.213 21.1584C296.283 21.0809 296.48 21.3487 296.445 21.4544Z" fill="#F3CBB2"/>
<path d="M273.855 73.4322L273.623 73.1362C273.707 73.0657 273.883 73.3264 273.855 73.4322Z" fill="#BED8E6"/>
<path d="M295.927 48.1502L295.843 47.9177C295.667 48.0657 295.519 48.27 295.35 48.418C294.633 49.0311 293.6 49.6936 292.756 50.1587C291.575 50.8071 290.83 50.8142 289.543 51.0467C288.763 51.1877 288.2 51.4343 287.371 51.3709C285.275 51.2159 281.479 50.5393 279.63 49.5668C279.201 49.3412 278.568 48.8338 278.153 48.5237C278.097 48.4814 277.724 48.0163 277.738 48.3264L277.619 48.0656L275.896 46.8605C274.891 45.9162 273.26 42.322 273.07 40.9477C273.021 40.5883 273.084 40.2218 273.042 39.8624C272.936 39.0379 272.507 37.9737 272.339 37.1069C271.776 34.2456 272.437 30.7994 273.112 27.9875C273.203 27.5999 273.309 27.0784 273.428 26.719C273.555 26.3384 275.32 24.1255 275.699 23.7097C276.733 22.568 279.616 20.7639 281.085 20.3058C281.591 20.1507 282.111 19.9816 282.604 19.8336C284.136 19.3685 287.68 19.4108 289.234 19.8195C292.123 20.5807 296.004 23.8295 298.085 25.9649C298.346 26.2256 298.971 26.874 299.112 27.1629C299.527 28.0368 300.061 29.6507 300.356 30.6092C300.813 32.1173 300.849 32.815 300.806 34.3795C300.771 35.6058 300.722 36.8461 300.743 38.0794C300.764 39.1647 300.926 39.6792 300.645 40.7927C300.23 42.4418 299.794 43.506 298.803 44.8732C298.43 45.3876 297.966 46.043 297.586 46.5293C297.319 46.8605 296.04 47.678 295.969 47.8895C295.948 47.9458 295.997 48.0727 295.948 48.1432L295.927 48.1502Z" fill="#F3A977"/>
<path d="M291.645 42.8721C291.645 42.8721 291.708 43.006 291.708 43.013C291.708 43.0483 291.575 43.0906 291.532 43.1469C290.576 44.4437 289.901 45.4092 288.284 45.98C286.456 46.6284 284.586 45.8955 283.37 44.4578C283.25 44.3168 282.603 43.4148 282.582 43.309C282.554 43.1892 283.187 43.1117 283.313 43.1047C285.563 42.9708 287.855 42.9144 290.105 42.8721C290.309 42.8721 291.589 42.8298 291.652 42.8791L291.645 42.8721Z" fill="#F3E7E2"/>
<path d="M280.523 30.7979C282 30.7063 282.077 33.194 282 34.2159C281.866 35.9425 280.066 36.8093 279.18 35.0475C278.526 33.7578 278.646 30.9177 280.523 30.7979Z" fill="black"/>
<path d="M293.861 30.9745C294.641 30.8406 295.14 31.4749 295.267 32.1796C295.436 33.124 295.555 35.1959 294.754 35.8584C293.502 36.9014 292.553 34.6604 292.469 33.6878C292.391 32.7716 292.778 31.1578 293.854 30.9745H293.861Z" fill="black"/>
<path d="M287.729 34.4778C287.898 34.6328 287.645 35.9648 287.582 36.2396C287.427 36.8951 287.139 37.5716 286.801 38.1495C286.801 38.227 287.877 38.9459 288.039 39.0163C288.172 39.0727 288.446 39.0163 288.292 39.2419C288.137 39.4462 287.483 39.1009 287.307 38.9952C287.146 38.8965 286.527 38.4103 286.506 38.2693C286.478 38.0579 286.745 37.6985 286.829 37.48C287.202 36.5356 287.441 35.5701 287.61 34.5623C287.603 34.4778 287.708 34.4637 287.743 34.4919L287.729 34.4778Z" fill="#986A4B"/>
</g>
<path d="M287.23 104.477C315.72 104.477 338.815 81.3266 338.815 52.7696C338.815 24.2126 315.72 1.0625 287.23 1.0625C258.74 1.0625 235.645 24.2126 235.645 52.7696C235.645 81.3266 258.74 104.477 287.23 104.477Z" stroke="#F5AE58" stroke-width="2" stroke-miterlimit="10"/>
<path d="M44.9744 268.25C69.2357 268.25 88.9034 248.523 88.9034 224.188C88.9034 199.852 69.2357 180.125 44.9744 180.125C20.7131 180.125 1.04541 199.852 1.04541 224.188C1.04541 248.523 20.7131 268.25 44.9744 268.25Z" fill="white"/>
<mask id="mask7_848_562" style="mask-type:luminance" maskUnits="userSpaceOnUse" x="1" y="180" width="88" height="89">
<path d="M44.9744 268.254C69.2357 268.254 88.9034 248.527 88.9034 224.192C88.9034 199.857 69.2357 180.129 44.9744 180.129C20.7131 180.129 1.04541 199.857 1.04541 224.192C1.04541 248.527 20.7131 268.254 44.9744 268.254Z" fill="white"/>
</mask>
<g mask="url(#mask7_848_562)">
<path d="M4.41983 270.467V267.65C4.39588 268.575 4.40786 269.542 4.41983 270.467Z" fill="#C8E1EE"/>
<path d="M28.6624 198.09C28.5966 198.241 28.5187 198.607 28.3511 198.613C28.4469 198.367 28.5367 198.253 28.6624 198.036C28.6924 198.054 28.6924 198.066 28.6624 198.09Z" fill="#4F4F4F"/>
<path d="M27.9321 200.483C28.016 200.537 27.986 200.681 27.986 200.771C27.986 200.837 28.0279 201.059 27.9321 201.059C27.9321 200.885 27.9321 200.711 27.9321 200.537C27.9321 200.519 27.9321 200.501 27.9321 200.483Z" fill="#545454"/>
<path d="M29.3386 207.06C29.3805 206.964 29.6979 207.102 29.65 207.216C29.5721 207.192 29.4105 207.108 29.3386 207.06Z" fill="#646464"/>
<path d="M30.1168 207.322C30.0389 207.322 29.9671 207.334 29.9072 207.268C29.9072 207.268 29.9012 207.22 29.9312 207.22C29.9851 207.22 30.0749 207.28 30.1168 207.322Z" fill="#808080"/>
<path d="M27.0999 202.782C27.1957 202.8 27.1417 202.95 27.1537 203.04H27.0999V202.782Z" fill="#3E3E3E"/>
<path d="M37.7161 233.781L37.8419 233.757C38.5604 234.616 39.9255 235.103 41.0152 235.367C44.9728 236.334 49.4932 235.409 53.3909 234.586C53.4628 234.586 53.5287 234.622 53.5825 234.664C54.7321 234.538 56.0434 234.628 57.1989 234.664C59.7675 234.748 62.7192 235.078 65.2399 235.631C67.2696 236.075 70.0058 237.295 71.5565 238.688C72.1792 239.246 72.6162 239.871 73.3048 240.429C74.3346 241.258 75.4782 241.943 76.496 242.808C78.9389 244.891 81.1422 246.813 83.1 249.39C84.4711 251.197 85.6087 253.251 86.5607 255.317C88.6683 259.917 89.0275 264.932 89.8597 269.85C90.1651 271.658 90.5902 273.442 90.8776 275.249C91.0333 276.258 91.1231 277.279 91.2488 278.294H4.88765C4.88166 278.114 4.89962 277.928 4.88765 277.748C4.70204 275.291 4.45658 272.949 4.42065 270.469V267.652C4.4925 264.926 5.39658 261.413 6.06117 258.728C7.4203 253.227 9.46797 249.66 13.3717 245.606C17.8323 240.97 26.005 236.76 32.0402 234.586C33.3095 234.13 36.5486 233.055 37.7221 233.787L37.7161 233.781Z" fill="#AFD3E6"/>
<path d="M35.3206 195.266C35.3206 195.386 35.2368 195.47 35.1111 195.476C35.171 195.38 35.2488 195.302 35.3206 195.218V195.272V195.266Z" fill="#525252"/>
<path d="M47.7018 193.13V193.184C47.7497 193.148 47.8336 193.178 47.8575 193.238H48.1689C48.2647 193.268 48.4203 193.352 48.5341 193.394C48.7077 193.502 48.8813 193.551 49.055 193.551C49.3663 193.587 49.6956 193.587 49.989 193.653C49.7555 193.701 49.9351 193.695 50.0429 193.653C50.2046 193.659 50.2764 193.683 50.4081 193.707V193.761C50.4201 193.725 50.4381 193.731 50.462 193.761L50.7195 193.815C50.9111 193.833 50.9649 193.857 51.1386 193.917C51.2284 193.959 51.3122 193.977 51.396 193.971C51.5218 194.013 51.6415 194.079 51.7613 194.127C52.1385 194.289 52.5037 194.493 52.851 194.704C52.9108 194.722 53.0785 194.746 53.1623 194.758C53.1922 194.758 53.2102 194.776 53.2162 194.812C53.306 194.824 53.3958 194.842 53.4736 194.866C53.6592 194.896 53.7131 194.902 53.8927 194.968C53.9826 195.01 54.0724 195.022 54.1502 195.022C54.1682 195.034 54.1861 195.064 54.2041 195.076C54.5753 195.172 54.9166 195.352 55.2459 195.544C55.5512 195.737 55.8446 195.947 56.132 196.169C56.3475 196.241 56.5571 196.211 56.7667 196.277C56.9104 196.325 57.1798 196.469 57.3834 196.535L57.6408 196.637C58.1198 196.787 58.6946 197.25 59.0478 197.526C59.1975 197.574 59.3352 197.646 59.4669 197.736C59.5867 197.784 59.6885 197.85 59.7783 197.947L60.0896 198.205C60.1914 198.253 60.2633 198.319 60.2992 198.415C60.3172 198.433 60.3351 198.451 60.3531 198.469L60.7183 198.992C60.9877 199.418 61.1614 199.904 61.2392 200.403L61.2931 200.715C61.323 200.763 61.329 200.835 61.2931 200.871C61.335 201.063 61.335 201.256 61.2931 201.448C61.347 201.586 61.329 201.766 61.2931 201.916C61.2931 201.97 61.2931 202.018 61.2931 202.072L61.2392 202.385C61.2392 202.385 61.2392 202.421 61.2392 202.439C61.1733 202.763 61.0715 203.081 60.9279 203.376C60.9159 203.394 60.8859 203.406 60.8739 203.43C60.6225 203.952 60.1794 204.354 59.6765 204.631C59.5807 204.691 59.4909 204.757 59.419 204.841C59.3951 204.847 59.3472 204.835 59.3173 204.841L59.0598 204.943L58.8024 205.045C58.6287 205.093 58.5269 205.129 58.3353 205.147C58.0719 205.165 57.8085 205.177 57.557 205.201C56.2517 205.525 55.198 205.357 54.1921 204.457C53.4018 204.703 52.7492 204.625 51.9708 204.366C50.8153 204.829 49.6477 204.835 48.6119 204.066C48.4982 204.06 48.3964 204.108 48.3006 204.21C47.5522 204.709 46.7499 204.589 45.9416 204.427C44.9716 204.835 44.0316 204.793 43.0617 204.414C42.8102 204.451 42.5647 204.487 42.3192 204.523C42.0139 204.613 41.7145 204.727 41.4271 204.859C40.5889 205.399 39.7088 205.88 38.7808 206.294C38.5353 206.438 38.164 206.612 37.8946 206.661C36.9606 207.135 35.8889 207.177 34.8591 207.003C33.7155 207.531 32.5898 207.507 31.4343 207.045L31.2846 207.075C31.2906 207.141 31.2307 207.165 31.1828 207.129C31.0451 207.189 30.9074 207.237 30.7637 207.285C30.5362 207.315 30.3865 207.345 30.1411 207.339L29.9315 207.285C29.8417 207.273 29.7578 207.261 29.674 207.231C29.6022 207.135 29.4824 207.075 29.3627 207.075C29.3327 207.057 29.3028 206.985 29.2549 206.955C27.8 205.94 26.7642 204.775 27.1294 202.799C27.1534 202.839 27.1534 202.839 27.1294 202.799C27.1953 202.439 27.321 201.994 27.5006 201.682C27.5725 201.556 27.8359 201.352 27.8838 201.184C27.9437 200.967 27.8479 200.739 27.9617 200.553C27.9976 200.733 28.0036 200.613 27.9617 200.499C27.9617 200.355 27.9197 200.133 28.0155 200.03C28.0514 200.163 28.0455 200.079 28.0155 199.976C28.0215 199.826 28.0455 199.784 28.0694 199.664H28.1233C28.0814 199.574 28.1173 199.436 28.1772 199.352C28.2251 199.118 28.3029 198.841 28.3867 198.619C28.5065 198.457 28.6083 198.283 28.6981 198.097L28.8538 197.838L29.0094 197.628L29.219 197.37C29.3746 197.202 29.5184 197.058 29.686 196.902C29.7698 196.793 29.8776 196.709 29.9973 196.643C30.3626 196.373 30.7338 196.115 31.1409 195.911C31.1948 195.893 31.2427 195.875 31.2966 195.857C31.6918 195.682 32.1109 195.568 32.5479 195.544C32.53 195.484 32.5959 195.472 32.6497 195.49C32.9431 195.514 33.2425 195.532 33.5359 195.49C33.5838 195.448 33.6376 195.46 33.6915 195.49C33.7095 195.49 33.7274 195.49 33.7454 195.49C33.7933 195.502 33.7873 195.52 33.7454 195.544L34.1645 195.598C34.2004 195.61 34.2304 195.64 34.2663 195.652C34.4279 195.682 34.5836 195.737 34.7333 195.809C34.901 195.881 35.0147 195.803 35.0985 195.652C35.1285 195.598 35.1345 195.526 35.1524 195.496C35.2363 195.442 35.3081 195.37 35.362 195.286C35.6194 194.974 35.9128 194.698 36.2481 194.451C36.302 194.415 36.3499 194.379 36.4038 194.349C36.4996 194.313 36.5894 194.265 36.6612 194.193C36.6971 194.175 36.7211 194.157 36.763 194.139C36.8588 194.121 36.9426 194.091 37.0205 194.037C37.1342 194.013 37.2181 193.959 37.2779 193.881C37.3797 193.851 37.5773 193.845 37.697 193.827C37.8827 193.803 37.8946 193.785 37.7509 193.773C37.8647 193.683 37.9066 193.737 38.0084 193.719C38.0982 193.737 38.182 193.755 38.2658 193.773C38.5352 193.731 38.8226 193.731 39.0981 193.773C39.1998 193.755 39.3016 193.743 39.4094 193.719C39.5471 193.731 39.5651 193.749 39.6669 193.773C39.6269 193.797 39.6269 193.797 39.6669 193.773C40.1458 193.881 40.8823 194.187 41.3314 194.451C41.4272 194.487 41.517 194.535 41.5888 194.607C41.6247 194.626 41.6606 194.65 41.6906 194.662C41.8522 194.637 42.0079 194.583 42.1576 194.505C42.2055 194.439 42.2833 194.379 42.3672 194.349C42.4629 194.313 42.5288 194.259 42.5767 194.193C43.0497 193.971 43.6843 193.719 44.1873 193.569C44.313 193.532 44.4148 193.478 44.4986 193.412C44.6962 193.352 44.8279 193.34 45.0195 193.31L45.277 193.256C45.4746 193.202 45.6781 193.166 45.8997 193.154C45.9116 193.118 45.9296 193.118 45.9536 193.154C46.0314 193.112 46.1332 193.112 46.211 193.154C46.4984 193.106 46.8037 193.112 47.0971 193.154C47.1749 193.124 47.2648 193.106 47.3546 193.1C47.5282 193.1 47.6001 193.136 47.7198 193.154L47.7018 193.13Z" fill="black"/>
<path d="M59.7182 204.616H59.6643C60.1553 204.292 60.5325 203.907 60.8618 203.415C60.7001 203.974 60.1912 204.334 59.7182 204.616Z" fill="#6F6F6F"/>
<path d="M61.2269 200.286V200.388C61.1072 199.896 60.9276 199.433 60.7061 198.977C61.0653 199.445 61.1132 199.71 61.2269 200.28V200.286Z" fill="#727272"/>
<path d="M31.1053 195.899C30.7341 196.157 30.3449 196.392 29.9617 196.632C30.3568 196.302 30.5963 196.085 31.1053 195.899Z" fill="#525252"/>
<path d="M36.206 194.436L35.3198 195.271V195.217C35.6132 194.845 35.8288 194.695 36.206 194.436Z" fill="#545454"/>
<path d="M56.1317 196.159C55.8503 196.063 55.5031 195.709 55.2456 195.534C55.5629 195.697 55.9042 195.865 56.1317 196.159Z" fill="#515151"/>
<path d="M39.3259 193.711C39.2481 193.753 39.1403 193.753 39.0685 193.711C38.793 193.753 38.5116 193.753 38.2362 193.711C38.1584 193.753 38.0566 193.753 37.9788 193.711C38.35 193.651 38.6613 193.651 39.0445 193.657C39.1343 193.657 39.278 193.621 39.3319 193.711H39.3259Z" fill="black"/>
<path d="M47.2886 193.077C47.2048 193.113 47.139 193.113 47.0791 193.077C46.7857 193.113 46.4864 193.113 46.193 193.077C46.1271 193.113 46.0552 193.113 45.9834 193.077C46.0373 192.993 46.181 193.023 46.2708 193.023C46.5941 193.023 46.9833 192.981 47.2886 193.077Z" fill="black"/>
<path d="M60.9155 203.356L61.2269 202.419C61.185 202.78 61.1131 203.05 60.9155 203.356Z" fill="#6E6E6E"/>
<path d="M52.8514 194.697C52.5341 194.619 52.0671 194.271 51.7617 194.121C52.1329 194.271 52.552 194.397 52.8514 194.697Z" fill="#494949"/>
<path d="M33.6554 195.481C33.6015 195.481 33.5536 195.481 33.4997 195.481C33.2063 195.523 32.9069 195.505 32.6136 195.481C32.5776 195.481 32.5417 195.529 32.5118 195.535C32.398 195.559 32.2902 195.559 32.2004 195.535C32.5657 195.391 32.9848 195.427 33.3739 195.427C33.4637 195.427 33.6075 195.391 33.6613 195.481H33.6554Z" fill="black"/>
<path d="M32.5121 195.534C32.1049 195.6 31.6559 195.72 31.2607 195.846C31.5062 195.69 31.9134 195.576 32.1948 195.534C32.2906 195.522 32.4043 195.546 32.5061 195.534H32.5121Z" fill="#434343"/>
<path d="M55.2456 195.532C54.9104 195.364 54.5451 195.219 54.2039 195.063C54.599 195.093 54.9403 195.327 55.2456 195.532Z" fill="#4E4E4E"/>
<path d="M60.7129 198.975C60.5872 198.813 60.4135 198.657 60.3477 198.452C60.5692 198.699 60.5692 198.675 60.7129 198.975Z" fill="#666666"/>
<path d="M58.3172 205.137C58.2753 205.185 58.2214 205.185 58.1615 205.191C57.958 205.203 57.7424 205.179 57.5388 205.191C57.5448 205.137 57.6167 205.137 57.6646 205.137C57.8741 205.131 58.1136 205.155 58.3172 205.137Z" fill="#868482"/>
<path d="M42.134 194.436C42.1639 194.454 42.1639 194.466 42.134 194.49C41.9304 194.598 41.8825 194.713 41.667 194.646C41.8047 194.592 42.0142 194.508 42.134 194.436Z" fill="#5B5B5B"/>
<path d="M49.9955 193.654C49.9955 193.654 50.0314 193.654 50.0494 193.654C49.9955 193.738 49.8517 193.708 49.7619 193.708C49.6841 193.708 49.4386 193.75 49.4207 193.654C49.6122 193.654 49.8039 193.654 49.9955 193.654Z" fill="#3F3F3F"/>
<path d="M61.2812 201.897C61.2812 201.759 61.2812 201.591 61.2812 201.429C61.2932 201.381 61.3112 201.387 61.3352 201.429C61.3352 201.573 61.377 201.795 61.2812 201.897Z" fill="#707070"/>
<path d="M61.3352 201.431H61.2812C61.2812 201.239 61.2812 201.047 61.2812 200.855C61.2932 200.807 61.3112 200.813 61.3352 200.855C61.3471 201.041 61.3352 201.239 61.3352 201.431Z" fill="#686868"/>
<path d="M59.4604 197.727C59.2987 197.649 59.2089 197.643 59.0413 197.517C59.2448 197.493 59.3346 197.637 59.4604 197.727Z" fill="#525252"/>
<path d="M34.697 195.794C34.4875 195.752 34.4036 195.698 34.23 195.638C34.4036 195.572 34.6132 195.776 34.697 195.794Z" fill="#444444"/>
<path d="M34.698 195.793C34.8656 195.829 34.9435 195.727 35.0632 195.637C35.0273 195.709 35.0512 195.799 34.9195 195.835C34.7818 195.877 34.7519 195.799 34.698 195.793Z" fill="#5A5A5A"/>
<path d="M28.0871 199.654C28.0751 199.702 28.0572 199.696 28.0332 199.654C28.0512 199.546 28.0092 199.414 28.135 199.342C28.117 199.432 28.0991 199.558 28.0811 199.654H28.0871Z" fill="#434343"/>
<path d="M60.0838 198.194C59.9042 198.08 59.9162 198.074 59.7725 197.936C59.9521 198.05 59.9401 198.056 60.0838 198.194Z" fill="#515151"/>
<path d="M29.9615 196.629C29.8717 196.701 29.716 196.827 29.6501 196.887C29.716 196.725 29.8537 196.695 29.9615 196.629Z" fill="#535353"/>
<path d="M28.818 197.826C28.8061 197.934 28.7641 198.042 28.6624 198.084V198.03C28.7222 197.934 28.7402 197.874 28.818 197.772C28.854 197.79 28.854 197.802 28.818 197.826Z" fill="#575757"/>
<path d="M47.965 193.187C47.9949 193.223 47.965 193.241 47.8632 193.241C47.8033 193.235 47.7495 193.199 47.7075 193.187C47.6596 193.175 47.6656 193.157 47.7075 193.133C47.8273 193.151 47.8512 193.151 47.965 193.187Z" fill="black"/>
<path d="M59.6705 204.616H59.7244C59.6226 204.676 59.5448 204.778 59.4131 204.826C59.3891 204.694 59.5687 204.658 59.6705 204.616Z" fill="#707070"/>
<path d="M44.4747 193.395C44.5166 193.557 44.2831 193.515 44.1633 193.551C44.2412 193.449 44.3609 193.431 44.4747 193.395Z" fill="#4B4B4B"/>
<path d="M33.9675 195.533C33.9975 195.533 34.0813 195.569 34.1232 195.587C34.0574 195.677 33.7939 195.599 33.7041 195.533C33.7819 195.491 33.8838 195.491 33.9616 195.533H33.9675Z" fill="#494949"/>
<path d="M59.7723 197.933C59.6466 197.855 59.5807 197.813 59.4609 197.723C59.5088 197.747 59.5687 197.741 59.6346 197.783C59.7184 197.831 59.7304 197.891 59.7723 197.933Z" fill="#525252"/>
<path d="M61.281 200.596V200.699C61.1972 200.645 61.2271 200.482 61.2271 200.386C61.2271 200.35 61.2271 200.314 61.2271 200.284C61.2511 200.41 61.263 200.464 61.281 200.596Z" fill="#7C7C7C"/>
<path d="M27.9851 199.966C28.057 200.027 28.0869 200.351 27.9851 200.381C27.9851 200.261 27.9851 200.135 27.9851 200.015C27.9851 199.996 27.9851 199.978 27.9851 199.96V199.966Z" fill="#454545"/>
<path d="M28.9739 197.618V197.564C29.0517 197.468 29.1116 197.432 29.1834 197.354C29.1774 197.48 29.0757 197.558 28.9739 197.612V197.618Z" fill="#545454"/>
<path d="M41.5648 194.592C41.4092 194.526 41.4032 194.49 41.3074 194.436C41.4151 194.448 41.5229 194.49 41.5648 194.592Z" fill="#535353"/>
<path d="M28.9733 197.617C28.9733 197.719 28.9074 197.785 28.8176 197.827V197.773C28.8715 197.701 28.9194 197.635 28.9733 197.563V197.617Z" fill="#585858"/>
<path d="M45.9351 193.076C45.983 193.088 45.977 193.106 45.9351 193.13C45.9171 193.13 45.8991 193.13 45.8812 193.13C45.7554 193.172 45.6536 193.172 45.5698 193.13C45.6417 193.04 45.8213 193.082 45.9351 193.076Z" fill="black"/>
<path d="M45.8819 193.132C45.7143 193.222 45.4509 193.21 45.2593 193.234C45.2593 193.234 45.2593 193.186 45.2593 193.18C45.3371 193.138 45.4269 193.126 45.5167 193.126C45.5347 193.126 45.5526 193.126 45.5706 193.126C45.6664 193.114 45.7802 193.126 45.8819 193.126V193.132Z" fill="#434343"/>
<path d="M48.169 193.24C48.0253 193.3 47.9535 193.252 47.8577 193.24L47.9594 193.186C48.0253 193.204 48.0792 193.21 48.169 193.24Z" fill="#101010"/>
<path d="M60.2926 198.404C60.2327 198.344 60.1489 198.254 60.083 198.194C60.1608 198.242 60.2926 198.224 60.2926 198.404Z" fill="#6F6F6F"/>
<path d="M42.5525 194.174C42.5944 194.33 42.4208 194.282 42.343 194.33H42.2891C42.3669 194.288 42.4507 194.222 42.5465 194.174H42.5525Z" fill="#676767"/>
<path d="M36.6193 194.174C36.5774 194.276 36.4636 194.318 36.3618 194.33C36.4576 194.27 36.4935 194.24 36.6193 194.174Z" fill="#4E4E4E"/>
<path d="M59.0424 204.926C59.0424 204.926 59.0783 204.902 59.0963 204.926C58.9586 204.986 58.9226 204.992 58.7849 205.028C58.8388 204.938 58.9466 204.92 59.0424 204.926Z" fill="#7D7D7D"/>
<path d="M61.2273 202.367C61.2273 202.289 61.1734 202.127 61.2812 202.054C61.2812 202.151 61.3112 202.313 61.2273 202.367Z" fill="#828282"/>
<path d="M37.2474 193.863C37.2834 194.031 37.0858 193.989 36.99 194.019C37.0738 193.965 37.1397 193.893 37.2474 193.863Z" fill="#4A4A4A"/>
<path d="M51.3962 193.966C51.3423 194.086 51.1985 193.936 51.1387 193.912C51.2405 193.894 51.3123 193.936 51.3962 193.966Z" fill="#454545"/>
<path d="M36.985 194.022C36.9072 194.07 36.8593 194.154 36.7275 194.124C36.8233 194.088 36.8652 194.058 36.985 194.022Z" fill="#4E4E4E"/>
<path d="M54.1559 195.01C54.102 195.13 53.9583 194.98 53.8984 194.956C53.9942 194.944 54.0721 194.968 54.1559 195.01Z" fill="#464646"/>
<path d="M57.641 196.624C57.5572 196.6 57.4434 196.63 57.3835 196.522C57.4614 196.546 57.5811 196.516 57.641 196.624Z" fill="#434343"/>
<path d="M39.3261 193.707C39.3261 193.707 39.362 193.707 39.38 193.707C39.3261 193.797 39.1644 193.755 39.0686 193.761C39.0207 193.749 39.0267 193.731 39.0686 193.707C39.1525 193.707 39.2423 193.707 39.3261 193.707Z" fill="#454545"/>
<path d="M49.0549 193.551C49.0549 193.551 49.0669 193.617 48.9412 193.593C48.8394 193.575 48.6239 193.461 48.54 193.395C48.6957 193.449 48.8993 193.491 49.0609 193.551H49.0549Z" fill="#484848"/>
<path d="M59.3047 204.825C59.2568 204.915 59.161 204.903 59.0952 204.927H59.0413C59.1011 204.813 59.2149 204.843 59.2987 204.825H59.3047Z" fill="#7D7D7D"/>
<path d="M42.3434 194.334C42.2895 194.364 42.2416 194.436 42.1338 194.49V194.436C42.1817 194.406 42.2236 194.364 42.2895 194.334H42.3434Z" fill="#3E3E3E"/>
<path d="M37.7151 193.756C37.805 193.768 37.9427 193.714 37.9247 193.81C37.8409 193.816 37.7511 193.798 37.6672 193.81C37.6852 193.792 37.6972 193.774 37.7211 193.756H37.7151Z" fill="#494949"/>
<path d="M50.6717 193.755C50.6058 193.797 50.528 193.791 50.4621 193.755C50.4442 193.755 50.4262 193.755 50.4082 193.755C50.3603 193.743 50.3663 193.725 50.4082 193.701C50.4861 193.713 50.6238 193.665 50.6657 193.755H50.6717Z" fill="black"/>
<path d="M53.4253 194.802C53.3594 194.844 53.2876 194.826 53.2158 194.802C53.1978 194.784 53.1798 194.766 53.1619 194.748C53.2397 194.76 53.3774 194.706 53.4194 194.802H53.4253Z" fill="black"/>
<path d="M61.3352 200.854H61.2812V200.596C61.2812 200.644 61.3232 200.734 61.3352 200.854Z" fill="#868686"/>
<path d="M33.9667 195.532C33.8829 195.52 33.7931 195.538 33.7092 195.532V195.478C33.7931 195.478 33.9248 195.448 33.9667 195.532Z" fill="black"/>
<path d="M45.2585 193.24C45.1806 193.264 45.1207 193.33 45.001 193.294C45.0848 193.282 45.1507 193.258 45.2585 193.24Z" fill="#424242"/>
<path d="M45.5167 193.132C45.4808 193.132 45.2713 193.18 45.2593 193.186C45.3012 193.102 45.4389 193.138 45.5167 193.132Z" fill="black"/>
<path d="M47.288 193.076H47.3419C47.3419 193.076 47.2042 193.13 47.0845 193.13C47.0366 193.118 47.0426 193.1 47.0845 193.076H47.294H47.288Z" fill="#565656"/>
<path d="M46.193 193.076C46.2409 193.088 46.2349 193.106 46.193 193.13C46.1092 193.13 46.0194 193.13 45.9355 193.13V193.076C45.9355 193.076 45.9715 193.076 45.9894 193.076C46.0613 193.076 46.1271 193.076 46.199 193.076H46.193Z" fill="#545454"/>
<path d="M53.4257 194.804C53.4257 194.804 53.4736 194.834 53.4796 194.858C53.3778 194.84 53.3299 194.894 53.2222 194.804C53.288 194.804 53.3599 194.798 53.4317 194.804H53.4257Z" fill="#404040"/>
<path d="M50.6721 193.754C50.6721 193.754 50.72 193.784 50.726 193.808C50.6422 193.802 50.5104 193.844 50.4685 193.754C50.5344 193.754 50.6122 193.748 50.6781 193.754H50.6721Z" fill="#3F3F3F"/>
<path d="M37.8707 206.65C37.9785 206.65 37.9426 206.692 37.8707 206.752C37.8528 206.752 37.8348 206.752 37.8168 206.752C37.6731 206.842 37.5115 206.885 37.3498 206.909C37.1463 206.975 36.9966 207.029 36.775 207.065C36.0985 207.275 35.4938 207.185 34.8292 207.047C33.6437 207.683 32.4402 207.515 31.2607 207.065C31.3206 207.047 31.3505 206.969 31.4763 206.987C31.6619 207.011 32.0032 207.203 32.2367 207.257C32.8294 207.389 33.3742 207.389 33.967 207.245C34.3622 207.149 34.5957 206.927 35.0268 206.963C36.2302 207.071 36.7092 207.041 37.8707 206.644V206.65Z" fill="#956849"/>
<path d="M47.079 193.076V193.13C46.7856 193.13 46.4862 193.124 46.1929 193.13V193.076C46.4862 193.076 46.7856 193.076 47.079 193.076Z" fill="#373737"/>
<path d="M33.5004 195.481C33.2549 195.571 32.8597 195.571 32.6143 195.481C32.8478 195.445 33.2429 195.481 33.5004 195.481Z" fill="#404040"/>
<path d="M39.0684 193.707V193.761C38.7929 193.761 38.5115 193.773 38.2361 193.761C38.1882 193.749 38.1942 193.731 38.2361 193.707C38.5115 193.701 38.7929 193.701 39.0684 193.707Z" fill="#1F1F1F"/>
<path d="M47.7012 193.133V193.187C47.6353 193.175 47.3899 193.217 47.3899 193.163L47.7012 193.139V193.133Z" fill="#424242"/>
<path d="M50.408 193.707V193.761C50.3422 193.761 50.0967 193.785 50.0967 193.737L50.408 193.713V193.707Z" fill="#444444"/>
<path d="M28.0872 199.653C28.0752 199.713 28.1171 199.917 28.0632 199.917L28.0393 199.653H28.0932H28.0872Z" fill="#444444"/>
<path d="M39.6364 193.756C39.6184 193.852 39.4687 193.798 39.3789 193.81V193.756H39.6364Z" fill="#434343"/>
<path d="M38.2362 193.707V193.761C38.1464 193.761 37.9907 193.797 37.9788 193.707C38.0626 193.707 38.1524 193.707 38.2362 193.707Z" fill="#4C4C4C"/>
<path d="M52.9589 225.534L53.5815 232.5C53.6354 233.227 53.6175 233.941 53.5815 234.668C52.8211 234.752 51.971 235.034 51.1986 235.172C47.3068 235.869 41.2776 236.668 37.9367 234.079C37.8828 234.037 37.775 233.821 37.7151 233.785C37.5714 233.473 37.5116 233.155 37.4637 232.812C37.3978 232.326 37.4098 231.785 37.3499 231.305C37.1284 229.383 36.8589 227.467 36.6733 225.54C36.847 225.413 36.9667 225.678 37.0925 225.768C38.3438 226.687 39.1401 227.041 40.6369 227.479C40.9902 227.581 41.3435 227.696 41.7027 227.762C42.6248 227.948 45.1155 228.38 45.9477 228.29C46.3369 228.248 46.8159 228.068 47.217 227.996C48.3606 227.792 49.0192 227.786 50.073 227.209C51.0669 226.663 51.941 226.002 52.9529 225.528L52.9589 225.534Z" fill="#EF9A61"/>
<path d="M50.3058 204.709C50.4016 204.757 50.5214 204.751 50.6172 204.709C50.6531 204.637 50.7968 204.637 50.8267 204.709L51.0842 204.655C51.3416 204.511 51.7727 204.306 52.102 204.361C52.8026 204.655 53.4372 204.637 54.1437 204.427L54.2575 204.475C54.8263 204.949 55.4489 205.369 56.2333 205.327C56.8619 205.231 57.4846 205.201 58.1013 205.225C58.5144 207.646 58.8138 210.312 58.4007 212.75C58.239 213.693 57.8678 214.564 57.7002 215.495C57.3769 217.26 57.1613 219.657 56.3231 221.266C55.886 222.101 55.1496 222.791 54.6467 223.548C54.4491 223.848 54.3173 224.233 54.0958 224.509C54.018 224.611 53.0241 225.494 52.9522 225.53C52.6948 225.776 52.3894 225.98 52.0302 226.143C50.5094 227.205 49.0305 227.974 47.1864 228.112C46.2285 228.461 45.4381 228.425 44.4442 228.311C41.726 227.998 38.7563 227.398 36.6667 225.53C36.6667 225.458 36.6368 225.422 36.5889 225.374C36.2177 224.989 35.4513 224.671 35.0561 224.299C34.1939 223.494 33.0444 220.894 32.6313 219.735C32.4217 219.146 32.0984 218.281 31.9547 217.705C31.787 217.05 31.7272 216.293 31.5895 215.615C31.4518 214.936 31.2362 214.3 31.1524 213.651C31.0686 213.002 31.0985 212.33 31.0386 211.675C30.9429 210.57 30.7572 209.471 30.7273 208.36C30.7692 208.276 30.7692 208.18 30.7273 208.102C30.7273 207.826 30.7991 207.549 30.7273 207.267C30.8111 207.219 30.9608 207.153 31.0386 207.213C31.1584 207.135 31.2722 207.069 31.4159 207.093C32.5355 207.573 33.715 207.603 34.8166 207.033C35.4693 207.159 36.086 207.273 36.7625 207.051C36.8763 206.943 37.1756 206.871 37.3373 206.895C37.4989 206.871 37.6666 206.829 37.8043 206.739C37.8223 206.691 37.8402 206.691 37.8582 206.739C37.8761 206.667 37.9001 206.637 37.96 206.685L38.4809 206.474C38.5767 206.348 38.7144 206.282 38.9 206.264C39.7203 205.814 40.5405 205.339 41.3608 204.841C41.6482 204.703 41.9655 204.559 42.2828 204.541C42.5463 204.445 42.8815 204.348 43.1749 204.415C44.079 204.817 45.013 204.745 45.9171 204.397C46.7554 204.595 47.5217 204.637 48.318 204.18C48.342 204.078 48.4737 204.012 48.5755 204.036C49.1024 204.36 49.6053 204.661 50.2459 204.655L50.2879 204.703L50.3058 204.709Z" fill="#F3A977"/>
<path d="M30.7397 208.358C30.7397 208.274 30.7397 208.184 30.7397 208.1C30.8236 208.136 30.8236 208.328 30.7397 208.358Z" fill="#F7CDB0"/>
<path d="M57.5381 205.169C57.7357 205.115 57.9633 205.139 58.1608 205.169C58.1608 205.193 58.1309 205.217 58.1069 205.223C57.9273 205.247 57.6998 205.205 57.5082 205.223C56.4844 205.325 55.9395 205.596 54.9337 205.043C54.772 204.953 54.2391 204.503 54.1793 204.491C54.0236 204.467 53.6045 204.623 53.3949 204.641C53.0776 204.665 52.8082 204.623 52.4968 204.563C52.3292 204.527 52.0717 204.383 51.94 204.383C51.7963 204.383 51.3113 204.599 51.0838 204.647L50.8264 204.701C50.7605 204.701 50.6886 204.701 50.6168 204.701C50.521 204.749 50.4013 204.749 50.3055 204.701C49.9343 204.683 49.7067 204.665 49.3535 204.533C49.1319 204.449 48.659 204.106 48.5452 204.082C48.4494 204.058 48.3955 204.136 48.3237 204.178H48.2698C48.3237 204.064 48.4673 203.95 48.5931 203.98C48.6829 203.998 49.1619 204.341 49.3595 204.413C49.8444 204.599 50.3713 204.641 50.8862 204.587C51.2335 204.551 51.6885 204.286 51.934 204.274C52.2693 204.262 52.7603 204.575 53.3291 204.533C53.5626 204.515 54.0116 204.341 54.1673 204.353C54.2511 204.353 54.772 204.821 54.9397 204.911C55.9096 205.464 56.5143 205.211 57.5262 205.163L57.5381 205.169Z" fill="#C2875F"/>
<path d="M48.276 204.18H48.3299C47.9048 204.456 47.4199 204.613 46.899 204.601C46.6116 204.595 46.2284 204.432 45.9649 204.438C45.7913 204.438 45.6536 204.553 45.4919 204.595C44.8872 204.739 44.4801 204.811 43.8514 204.679C43.5939 204.625 43.2287 204.408 43.0431 204.39C42.9473 204.378 42.4444 204.51 42.2947 204.547C42.2468 204.534 42.2528 204.516 42.2947 204.492C43.2646 204.294 42.9832 204.396 43.8454 204.583C44.3843 204.697 44.8094 204.661 45.3363 204.541C45.5099 204.498 45.7733 204.36 45.917 204.354C46.1026 204.342 46.426 204.474 46.6415 204.492C47.2342 204.547 47.7492 204.426 48.282 204.18H48.276Z" fill="#CD8F65"/>
<path d="M42.2949 204.492V204.546C41.3309 204.762 40.6783 205.375 39.8161 205.843C39.5407 205.993 39.2054 206.125 38.912 206.269C38.8402 206.299 38.7863 206.299 38.7563 206.269C39.2593 205.969 39.7922 205.735 40.3011 205.441C41.1393 204.96 41.295 204.702 42.2949 204.492Z" fill="#8B6144"/>
<path d="M38.757 206.269C38.8049 206.263 38.8647 206.269 38.9126 206.269C38.7749 206.335 38.6372 206.407 38.4935 206.479L37.9726 206.689C37.9367 206.701 37.9068 206.725 37.8708 206.743V206.641C38.1403 206.551 38.4696 206.329 38.757 206.275V206.269Z" fill="#9B6C4C"/>
<path d="M31.1585 207.102L31.0567 207.204C30.943 207.228 30.8591 207.24 30.7454 207.258C30.7753 207.144 31.0747 207.132 31.1645 207.102H31.1585Z" fill="#956849"/>
<path d="M37.8168 206.738C37.7031 206.858 37.5115 206.894 37.3499 206.894C37.4696 206.858 37.7091 206.78 37.8168 206.738Z" fill="#C98C63"/>
<path d="M38.4928 206.481C38.3312 206.559 38.1695 206.691 37.9719 206.691C38.1096 206.643 38.3012 206.462 38.4928 206.481Z" fill="#C98C63"/>
<path d="M51.0839 204.646C51 204.664 50.9521 204.688 50.8264 204.7C50.8683 204.616 51.006 204.652 51.0839 204.646Z" fill="#CD8F65"/>
<path d="M43.5291 220.061C44.7625 219.995 45.9779 220.109 47.2053 220.151C48.1753 220.187 49.1452 220.121 50.1151 220.259C50.4145 220.355 50.0552 220.733 49.9415 220.853C48.8338 222 47.2472 223.093 45.5947 222.547C45.0678 222.373 42.9423 221.016 42.5771 220.619C42.5172 220.553 42.2897 220.235 42.3975 220.169C42.4693 220.127 43.3674 220.067 43.5351 220.055L43.5291 220.061Z" fill="#FEFEFE"/>
<path d="M39.212 209.678C39.8227 209.582 40.2658 210.207 40.4335 210.723C40.7508 211.702 40.8885 214.062 39.5772 214.381C37.793 214.819 37.4518 211.588 38.1702 210.465C38.3379 210.201 38.9067 209.726 39.206 209.678H39.212Z" fill="black"/>
<path d="M50.8095 209.312C51.4322 209.204 52.0848 209.828 52.1207 210.429C52.1267 210.543 52.0609 210.651 52.0669 210.735C52.1267 211.468 52.2525 212.206 52.0309 212.945C51.7675 213.816 50.9413 214.302 50.2767 213.474C49.5642 212.591 49.3187 211.162 49.8515 210.135C50.0192 209.816 50.4323 209.378 50.8035 209.312H50.8095Z" fill="black"/>
<path d="M45.6247 213.264C45.7744 213.402 45.5529 214.585 45.493 214.832C45.3553 215.414 45.0979 216.015 44.7985 216.525C44.7985 216.591 45.7565 217.234 45.8942 217.294C46.0139 217.348 46.2594 217.294 46.1157 217.492C45.984 217.678 45.3912 217.366 45.2416 217.27C45.0979 217.18 44.547 216.753 44.5291 216.627C44.5051 216.441 44.7386 216.117 44.8164 215.925C45.1457 215.084 45.3613 214.225 45.505 213.33C45.493 213.258 45.5948 213.24 45.6188 213.264H45.6247Z" fill="#986A4B"/>
<path d="M36.7751 207.052C36.4038 207.184 35.9488 207.232 35.5597 207.202C35.3681 207.184 34.9729 207.046 34.8352 207.064C34.7094 207.082 34.3562 207.286 34.1766 207.34C33.5299 207.532 32.9013 207.544 32.2427 207.4C31.9972 207.346 31.626 207.142 31.4344 207.112C31.3565 207.1 31.1769 207.184 31.0572 207.208C31.0093 207.184 31.0392 207.148 31.1589 207.106C31.1949 207.094 31.2308 207.064 31.2608 207.052C31.5481 207.046 31.8116 207.214 32.093 207.286C32.7755 207.466 33.482 207.484 34.1646 207.274C34.3502 207.22 34.6915 207.016 34.8292 206.998C35.0387 206.98 35.4938 207.154 35.7632 207.16C36.0326 207.166 36.5056 207.1 36.7811 207.052H36.7751Z" fill="#C98C63"/>
<path d="M50.6177 204.706C50.5698 204.79 50.3603 204.79 50.3064 204.706C50.4082 204.706 50.5159 204.706 50.6177 204.706Z" fill="#CD8F65"/>
</g>
<path d="M44.9744 268.25C69.2357 268.25 88.9034 248.523 88.9034 224.188C88.9034 199.852 69.2357 180.125 44.9744 180.125C20.7131 180.125 1.04541 199.852 1.04541 224.188C1.04541 248.523 20.7131 268.25 44.9744 268.25Z" stroke="#F5AE58" stroke-width="2" stroke-miterlimit="10"/>
<path d="M95.5035 39.1738C97.0423 37.4714 98.9637 36.2715 101.319 36.6771C105.149 37.3419 107.034 41.1678 105.756 44.7136C104.597 47.9236 100.35 52.077 97.7741 54.3709C96.6995 55.3289 95.6303 55.6973 94.3701 54.7668C92.8723 53.6546 90.8519 51.7638 89.4778 50.4453C86.523 47.6176 83.1212 43.2022 86.1817 39.1677C88.6044 35.9679 92.9638 36.3167 95.5079 39.1693L95.5035 39.1738Z" fill="#E29A9A"/>
<path d="M199.681 156.364C201.545 155.058 203.668 154.323 205.855 155.236C209.411 156.725 210.387 160.841 208.368 163.986C206.537 166.833 201.513 169.91 198.516 171.558C197.265 172.246 196.15 172.366 195.137 171.188C193.935 169.781 192.4 167.507 191.363 165.928C189.132 162.541 186.819 157.52 190.67 154.297C193.72 151.739 197.857 153.04 199.686 156.36L199.681 156.364Z" fill="#E29A9A"/>
</svg>
