<svg width="694" height="745" viewBox="0 0 694 745" fill="none" xmlns="http://www.w3.org/2000/svg">
<path d="M606.618 631.36C556.357 689.436 485.944 724.543 410.634 737.889C343.697 749.741 275.158 743.518 207.753 742.115C163.381 741.198 119.098 740.749 74.7621 742.115C57.2221 742.655 16.6315 748.716 4.60199 734.076C-6.18495 720.964 3.91768 707.853 15.1368 700.083C38.9797 683.59 54.827 680.317 58.2485 646.774C61.382 616 58.7888 583.392 60.9858 552.475C59.311 412.223 65.5959 269.974 60.9318 129.884C60.0314 102.996 59.4011 83.6792 38.3314 64.1648C24.1229 50.9993 -4.69027 39.9022 5.5024 15.154C13.1559 -3.44318 40.6365 0.999268 56.5738 1.44891C85.1889 2.25826 113.624 3.89496 142.293 3.51726C207.375 2.65395 272.853 -3.49714 337.953 2.81582C517.999 20.2979 664.694 118.194 689.762 306.539C704.6 417.996 681.316 545.065 606.6 631.378L606.618 631.36ZM243.679 66.3591C211.409 67.762 172.133 71.3771 172.925 112.978V626.612C172.151 678.428 231.83 676.846 269.143 678.105C313.93 679.615 356.339 679.651 399.541 666.18C549.405 619.471 584.629 453.482 565.613 314.615C553.583 226.881 513.641 146.665 433.901 103.122C377.427 72.2763 307.519 63.5893 243.679 66.3591Z" fill="#F5AE58"/>
</svg>
