<svg width="104" height="112" viewBox="0 0 104 112" fill="none" xmlns="http://www.w3.org/2000/svg">
<path d="M90.9052 94.7167C83.3733 103.403 72.8216 108.654 61.5359 110.65C51.5051 112.423 41.234 111.492 31.133 111.282C24.4836 111.145 17.8476 111.078 11.2035 111.282C8.57507 111.363 2.49233 112.27 0.689635 110.08C-0.926851 108.119 0.587087 106.158 2.26834 104.996C5.84134 102.529 8.21615 102.039 8.72889 97.0221C9.19845 92.4194 8.80985 87.5423 9.13908 82.918C8.88811 61.9407 9.82994 40.6648 9.13099 19.7118C8.99605 15.6901 8.9016 12.8009 5.74419 9.8822C3.61496 7.91305 -0.702864 6.25327 0.824567 2.55171C1.97149 -0.229836 6.08962 0.434615 8.47791 0.501867C12.7661 0.622921 17.0272 0.867719 21.3235 0.811227C31.0763 0.682103 40.8886 -0.237906 50.6442 0.706314C77.6252 3.32108 99.6083 17.9632 103.365 46.1338C105.589 62.8043 102.099 81.8097 90.9025 94.7194L90.9052 94.7167ZM36.5168 10.2104C31.6808 10.4202 25.7951 10.9609 25.9138 17.1831V94.0066C25.7978 101.757 34.7411 101.52 40.3327 101.708C47.0442 101.934 53.3995 101.94 59.8735 99.9247C82.3316 92.9386 87.6102 68.1118 84.7604 47.3416C82.9577 34.2194 76.9721 22.2216 65.0226 15.7089C56.5596 11.0954 46.0835 9.79611 36.5168 10.2104Z" fill="#100B2D"/>
<path d="M47.9026 79.9896C50.7766 80.0273 53.4942 80.837 55.0621 83.3872C57.6123 87.5353 55.5802 92.4743 51.1922 94.2067C47.2198 95.7751 39.804 95.2236 35.5158 94.7071C33.7293 94.4919 32.4934 93.7925 32.326 91.8395C32.1263 89.5126 32.2289 86.0504 32.326 83.667C32.5311 78.5531 33.8589 71.7042 40.1791 71.2334C45.1905 70.8622 48.4747 75.2443 47.9026 79.9923V79.9896Z" fill="#100B2D"/>
</svg>
