<svg width="343" height="287" viewBox="0 0 343 287" fill="none" xmlns="http://www.w3.org/2000/svg">
<path d="M112.853 268.063C92.5385 242.404 36.9536 167.012 54.4808 130.449C75.535 86.5229 150.172 180.597 143.195 268.017" stroke="#FFDDAB" stroke-width="0.75" stroke-linecap="round" stroke-linejoin="round"/>
<path d="M58.7003 267.724C34.535 247.04 8.49068 217.638 13.3422 189.838C20.9353 146.235 100.008 215.466 117.612 268.048" stroke="#FFDDAB" stroke-width="0.75" stroke-linecap="round" stroke-linejoin="round"/>
<path d="M33.9189 195.213C33.9189 195.213 71.53 249.643 79.3232 268.063" stroke="#3B3332" stroke-width="0.75" stroke-linecap="round" stroke-linejoin="round"/>
<path d="M65.1846 133.084C65.1846 133.084 116.349 227.574 129.826 268.065" stroke="#3B3332" stroke-width="0.75" stroke-linecap="round" stroke-linejoin="round"/>
<path d="M35.2284 150.672C35.2284 150.672 40.3418 121.101 6.76599 122.318C6.76599 122.318 6.33474 153.629 35.2284 150.672Z" fill="#3B3332"/>
<path d="M11.0635 126.49L37.8471 152.95" stroke="#FAFAFA" stroke-opacity="0.972549" stroke-width="0.5" stroke-linecap="round" stroke-linejoin="round"/>
<path d="M21.9834 128.324L22.3068 137.611" stroke="#FAFAFA" stroke-opacity="0.972549" stroke-width="0.5" stroke-linecap="round" stroke-linejoin="round"/>
<path d="M29.2988 135.131L29.6223 144.418" stroke="#FAFAFA" stroke-opacity="0.972549" stroke-width="0.5" stroke-linecap="round" stroke-linejoin="round"/>
<path d="M13.1885 136.318L22.3679 137.828" stroke="#FAFAFA" stroke-opacity="0.972549" stroke-width="0.5" stroke-linecap="round" stroke-linejoin="round"/>
<path d="M19.0107 144.434L29.7303 144.942" stroke="#FAFAFA" stroke-opacity="0.972549" stroke-width="0.5" stroke-linecap="round" stroke-linejoin="round"/>
<path d="M279.592 178.703C279.592 178.703 311.073 184.371 310.026 148.577C310.026 148.577 276.65 147.884 279.592 178.703Z" stroke="#3B3332" stroke-width="0.75" stroke-linecap="round" stroke-linejoin="round"/>
<path d="M305.529 153.121L277.128 181.476" stroke="#3B3332" stroke-width="0.5" stroke-linecap="round" stroke-linejoin="round"/>
<path d="M303.511 164.75L293.592 165.043" stroke="#3B3332" stroke-width="0.5" stroke-linecap="round" stroke-linejoin="round"/>
<path d="M296.195 172.496L286.276 172.773" stroke="#3B3332" stroke-width="0.5" stroke-linecap="round" stroke-linejoin="round"/>
<path d="M295.04 155.322L293.361 165.087" stroke="#3B3332" stroke-width="0.5" stroke-linecap="round" stroke-linejoin="round"/>
<path d="M286.338 161.469L285.722 172.881" stroke="#3B3332" stroke-width="0.5" stroke-linecap="round" stroke-linejoin="round"/>
<path d="M74.8723 79.8543C74.8723 79.8543 94.263 52.393 59.717 37.4688C59.717 37.4688 44.2074 68.9653 74.8723 79.8543Z" stroke="#3B3332" stroke-width="0.75" stroke-linecap="round" stroke-linejoin="round"/>
<path d="M62.043 43.7529L76.4128 83.4278" stroke="#3B3332" stroke-width="0.5" stroke-linecap="round" stroke-linejoin="round"/>
<path d="M72.2231 50.8535L68.0801 60.418" stroke="#3B3332" stroke-width="0.5" stroke-linecap="round" stroke-linejoin="round"/>
<path d="M76.3357 61.2646L72.208 70.8291" stroke="#3B3332" stroke-width="0.5" stroke-linecap="round" stroke-linejoin="round"/>
<path d="M59.4707 54.7344L68.0341 60.664" stroke="#3B3332" stroke-width="0.5" stroke-linecap="round" stroke-linejoin="round"/>
<path d="M61.457 65.7471L72.0534 71.4149" stroke="#3B3332" stroke-width="0.5" stroke-linecap="round" stroke-linejoin="round"/>
<path d="M292.499 96.7662C292.499 98.984 290.713 100.771 288.495 100.771C286.277 100.771 284.49 98.984 284.49 96.7662C284.49 94.5483 286.277 92.7617 288.495 92.7617C290.713 92.7617 292.499 94.5483 292.499 96.7662Z" fill="#3B3332"/>
<path d="M328.447 202.315C328.447 203.27 327.661 204.055 326.706 204.055C325.751 204.055 324.966 203.27 324.966 202.315C324.966 201.36 325.751 200.574 326.706 200.574C327.661 200.574 328.447 201.36 328.447 202.315Z" fill="#3B3332"/>
<path d="M13.9896 247.118C13.9896 249.474 12.0798 251.384 9.72331 251.384C7.36684 251.384 5.45703 249.474 5.45703 247.118C5.45703 244.761 7.36684 242.852 9.72331 242.852C12.0798 242.852 13.9896 244.761 13.9896 247.118Z" fill="#3B3332"/>
<path d="M111.698 66.948C111.698 67.8413 110.974 68.5806 110.065 68.5806C109.156 68.5806 108.433 67.8567 108.433 66.948C108.433 66.0393 109.156 65.3154 110.065 65.3154C110.974 65.3154 111.698 66.0393 111.698 66.948Z" fill="#3B3332"/>
<path d="M12.2486 57.6917C12.2486 59.2011 11.0165 60.4332 9.50713 60.4332C7.99776 60.4332 6.76562 59.2011 6.76562 57.6917C6.76562 56.1823 7.99776 54.9502 9.50713 54.9502C11.0165 54.9502 12.2486 56.1823 12.2486 57.6917Z" fill="#3B3332"/>
<path d="M259.786 16.4769C259.786 18.2943 258.323 19.7574 256.505 19.7574C254.688 19.7574 253.225 18.2943 253.225 16.4769C253.225 14.6595 254.688 13.1963 256.505 13.1963C258.323 13.1963 259.786 14.6595 259.786 16.4769Z" fill="#3B3332"/>
<path d="M305.791 125.644C308.625 125.813 311.459 125.982 314.293 126.152C315.279 126.213 315.279 124.673 314.293 124.612C311.459 124.442 308.625 124.273 305.791 124.103C304.805 124.042 304.805 125.582 305.791 125.644Z" fill="#3B3332"/>
<path d="M328.739 236.63C330.726 238.647 332.728 240.68 334.715 242.698C335.408 243.406 336.501 242.313 335.808 241.604C333.822 239.587 331.819 237.554 329.832 235.536C329.139 234.828 328.046 235.921 328.739 236.63Z" fill="#3B3332"/>
<path d="M283.335 41.9208C286.847 38.9175 290.358 35.8987 293.87 32.8954C294.625 32.2485 293.531 31.1704 292.776 31.8019C289.265 34.8052 285.753 37.8239 282.242 40.8273C281.487 41.4741 282.58 42.5523 283.335 41.9208Z" fill="#3B3332"/>
<path d="M97.1128 6.32729C99.6233 8.99179 102.149 11.6563 104.66 14.3362C105.337 15.0601 106.431 13.9665 105.753 13.2427C103.243 10.5782 100.717 7.91367 98.2063 5.23377C97.5286 4.50989 96.4351 5.60341 97.1128 6.32729Z" fill="#3B3332"/>
<path d="M36.2452 90.3897C39.0637 91.3292 41.8976 92.2687 44.7161 93.2236C45.6556 93.5316 46.0561 92.0531 45.132 91.745C42.3134 90.8055 39.4795 89.866 36.661 88.9111C35.7215 88.6031 35.3211 90.0816 36.2452 90.3897Z" fill="#3B3332"/>
<path d="M1.14438 171.418L7.18186 167.938C8.04436 167.445 7.25887 166.105 6.41178 166.613L0.374298 170.094C-0.488199 170.587 0.297289 171.927 1.14438 171.418Z" fill="#3B3332"/>
<path d="M316.541 268.034V253.664C316.541 221.059 290.112 194.645 257.522 194.645H183.578V268.034H316.557H316.541Z" fill="#3B3332"/>
<path d="M295.98 268.032V243.143C295.98 239.971 293.408 237.398 290.235 237.398C287.062 237.398 284.49 239.971 284.49 243.143V268.032H295.98Z" fill="#FAFAFA" fill-opacity="0.972549" stroke="#3B3332" stroke-width="0.75" stroke-linecap="round" stroke-linejoin="round"/>
<path d="M292.622 243.805C292.622 245.114 291.559 246.192 290.235 246.192C288.91 246.192 287.848 245.13 287.848 243.805C287.848 242.481 288.91 241.418 290.235 241.418C291.559 241.418 292.622 242.481 292.622 243.805Z" fill="#3B3332"/>
<path d="M35.2744 268.064H342" stroke="#3B3332" stroke-linecap="round" stroke-linejoin="round"/>
<path d="M203.4 44.1998C203.092 43.0447 202.322 42.136 201.337 41.6123C202.507 40.6266 203.092 39.0248 202.677 37.4384C202.461 36.6067 201.999 35.8983 201.398 35.3746C203 34.4813 203.862 32.6177 203.385 30.7695C203.077 29.5835 202.276 28.6748 201.275 28.1666C202.492 27.1809 203.092 25.5483 202.677 23.9465C202.338 22.6528 201.414 21.6671 200.258 21.1896C200.69 20.3271 200.844 19.326 200.582 18.3095C200.135 16.5999 198.687 15.4448 197.024 15.2753C197.101 15.1675 197.178 15.0751 197.24 14.9673C198.379 12.9959 197.702 10.4854 195.73 9.36108C194.621 8.7142 193.328 8.66799 192.219 9.09924C192.327 7.58987 191.603 6.0651 190.186 5.24881C188.846 4.47873 187.275 4.55574 186.043 5.29502C185.827 4.15529 185.165 3.09257 184.071 2.4611C182.377 1.47539 180.267 1.86043 179.004 3.24659C178.65 2.56891 178.111 1.96825 177.402 1.5524C175.539 0.47428 173.198 1.04414 171.996 2.78454C171.55 2.12226 170.887 1.5832 170.086 1.27517C168.1 0.520484 165.913 1.39838 164.973 3.26199C164.526 2.38409 163.787 1.66021 162.801 1.27517C160.691 0.458877 158.304 1.52159 157.488 3.63163C157.442 3.73944 157.426 3.84726 157.395 3.93967C156.672 3.3082 155.732 2.90775 154.7 2.90775C152.436 2.90775 150.588 4.74056 150.588 7.02001C150.588 7.08162 150.603 7.14322 150.603 7.20483C150.234 7.09702 149.849 7.02001 149.448 7.02001C147.184 7.02001 145.336 8.85282 145.336 11.1323C143.072 11.1323 141.224 12.9651 141.224 15.2445C141.224 15.799 141.331 16.3381 141.547 16.8309C139.56 17.1235 138.02 18.8177 138.02 20.8816C138.02 22.1445 138.59 23.2534 139.483 24.0081C138.082 24.6704 137.111 26.0719 137.111 27.7199C137.111 28.8289 137.558 29.83 138.267 30.5693C136.726 31.1699 135.633 32.6485 135.633 34.3889C135.633 36.1293 136.757 37.654 138.313 38.2239C137.558 38.9632 137.096 39.9951 137.096 41.1348C137.096 42.5364 137.804 43.7685 138.867 44.5078C137.789 45.2471 137.096 46.4792 137.096 47.8808C137.096 49.6366 138.205 51.1152 139.745 51.7158C139.345 52.3473 139.098 53.102 139.098 53.9183C139.098 56.1823 140.931 58.0305 143.21 58.0305C143.411 58.0305 143.596 57.9997 143.78 57.9689C143.426 58.5696 143.21 59.2627 143.21 60.0174C143.21 62.2814 145.043 64.1296 147.323 64.1296C147.831 64.1296 148.308 64.0218 148.755 63.8524C148.724 64.0526 148.693 64.2682 148.693 64.4839C148.693 66.7479 150.526 68.5961 152.806 68.5961C154.223 68.5961 155.47 67.8722 156.21 66.7787C158.535 67.5334 161.03 67.9647 163.618 67.9647H175.523C179.281 67.9647 182.824 67.0714 185.981 65.5312C186.967 66.6863 188.553 67.2562 190.124 66.8557C192.096 66.3475 193.358 64.4685 193.174 62.5124C193.959 62.8205 194.837 62.9129 195.715 62.6819C197.917 62.112 199.227 59.8633 198.657 57.6763C198.503 57.091 198.225 56.5674 197.871 56.1361C198.179 56.1361 198.487 56.0899 198.811 56.0129C201.013 55.443 202.322 53.1944 201.752 51.0073C201.568 50.2835 201.183 49.6674 200.69 49.1745C202.723 48.4969 203.924 46.3714 203.37 44.2614L203.4 44.1998Z" fill="#FAFAFA" fill-opacity="0.972549" stroke="#3B3332" stroke-width="0.75" stroke-linecap="round" stroke-linejoin="round"/>
<path d="M173.113 65.2428L167.77 65.3407C162.999 65.4281 159.202 69.3668 159.289 74.1379L159.451 82.977C159.539 87.7482 163.477 91.5451 168.248 91.4576L173.592 91.3597C178.363 91.2723 182.16 87.3336 182.073 82.5624L181.911 73.7233C181.823 68.9522 177.884 65.1553 173.113 65.2428Z" fill="#FAFAFA" fill-opacity="0.972549" stroke="#3B3332" stroke-width="0.75" stroke-miterlimit="10"/>
<path d="M135.924 54.7966C135.878 58.6008 138.943 61.712 142.778 61.7582C146.613 61.8044 149.74 58.7702 149.786 54.966C149.832 51.1618 146.767 48.0506 142.932 48.0044C139.097 47.9582 135.971 50.9924 135.924 54.7966Z" fill="#FAFAFA" fill-opacity="0.972549" stroke="#3B3332" stroke-width="0.75" stroke-miterlimit="10"/>
<path d="M146.691 54.9344C146.722 52.8398 145.028 51.1148 142.902 51.084" stroke="#3B3332" stroke-width="0.5" stroke-linecap="round" stroke-linejoin="round"/>
<path d="M204.031 53.564C204.216 57.3528 201.259 60.5872 197.439 60.772C193.62 60.9568 190.37 58.0305 190.185 54.2417C190 50.4529 192.957 47.2185 196.777 47.0337C200.597 46.8489 203.846 49.7752 204.031 53.564Z" fill="#FAFAFA" fill-opacity="0.972549" stroke="#3B3332" stroke-width="0.75" stroke-miterlimit="10"/>
<path d="M193.281 54.0877C193.174 51.9931 194.806 50.2064 196.932 50.0986" stroke="#3B3332" stroke-width="0.5" stroke-linecap="round" stroke-linejoin="round"/>
<path d="M172.724 17.3001L166.594 17.3504C156.192 17.4357 147.828 25.9379 147.913 36.3406L148.08 56.6702C148.165 67.0728 156.668 75.4367 167.07 75.3513L173.2 75.301C183.603 75.2157 191.966 66.7135 191.881 56.3108L191.714 35.9812C191.629 25.5786 183.127 17.2148 172.724 17.3001Z" fill="#FAFAFA" fill-opacity="0.972549" stroke="#3B3332" stroke-width="0.75" stroke-miterlimit="10"/>
<path d="M176.37 58.7549C176.046 61.5426 173.705 63.7142 170.84 63.745C167.96 63.7758 165.604 61.635 165.219 58.8473" stroke="#3B3332" stroke-width="0.5" stroke-linecap="round" stroke-linejoin="round"/>
<path d="M158.211 46.002C158.18 47.4035 157.01 48.5124 155.608 48.4816C154.207 48.4508 153.098 47.2803 153.129 45.8787C153.159 44.4772 154.33 43.3683 155.731 43.3991C157.133 43.4299 158.242 44.6004 158.211 46.002Z" fill="#3B3332"/>
<path d="M185.071 45.5088C185.041 46.9104 183.87 48.0193 182.469 47.9885C181.067 47.9577 179.958 46.7871 179.989 45.3856C180.02 43.984 181.19 42.8751 182.592 42.9059C183.993 42.9367 185.102 44.1072 185.071 45.5088Z" fill="#3B3332"/>
<path d="M179.896 39.9641C179.896 39.9641 183.47 39.1016 186.227 41.0268" stroke="#3B3332" stroke-width="0.75" stroke-linecap="round" stroke-linejoin="round"/>
<path d="M158.089 40.3645C158.089 40.3645 154.485 39.6252 151.805 41.6582" stroke="#3B3332" stroke-width="0.75" stroke-linecap="round" stroke-linejoin="round"/>
<path d="M172.212 51.8389L167.606 51.9159L169.624 41.874" stroke="#3B3332" stroke-width="0.75" stroke-linecap="round" stroke-linejoin="round"/>
<path d="M194.759 33.865C194.975 33.3721 195.098 32.8331 195.098 32.2632C195.098 30.9233 194.42 29.7373 193.404 29.0288C193.404 27.7813 193.342 26.4876 193.219 25.3324C192.803 21.4512 187.705 19.1871 183.562 16.7999C179.419 14.4126 171.764 14.1662 163.494 14.6744C155.208 15.1827 146.69 23.8847 146.69 23.8847L145.397 31.2005C143.856 31.7395 142.748 33.1873 142.748 34.8969C142.748 35.9904 143.194 36.9761 143.918 37.6846C142.794 38.3777 142.039 39.6098 142.039 41.0268C142.039 43.1984 143.795 44.9696 145.982 44.9696C148.169 44.9696 149.925 43.2138 149.925 41.0268C149.925 39.9333 149.478 38.9476 148.754 38.2391C149.879 37.546 150.633 36.3139 150.633 34.8969C150.633 34.4194 150.541 33.9574 150.371 33.5415C150.818 33.711 151.296 33.8188 151.788 33.8188C153.914 33.8188 155.623 32.14 155.716 30.0454C156.393 30.6152 157.256 30.9695 158.211 30.9695C160.213 30.9695 161.846 29.4755 162.092 27.5349C162.816 28.4744 163.925 29.0905 165.203 29.0905C166.743 29.0905 168.053 28.2126 168.699 26.9342C169.346 28.2126 170.671 29.0905 172.196 29.0905C173.551 29.0905 174.737 28.4128 175.445 27.3809C176.015 28.844 177.432 29.8913 179.111 29.8913C179.896 29.8913 180.62 29.6603 181.236 29.2599C181.652 30.9849 183.192 32.2786 185.056 32.2786C185.888 32.2786 186.658 32.0168 187.289 31.5855C187.243 31.8166 187.212 32.0476 187.212 32.2786C187.212 34.2962 188.737 35.9442 190.693 36.1752C190.477 36.6681 190.354 37.2072 190.354 37.777C190.354 39.9487 192.11 41.7199 194.297 41.7199C196.484 41.7199 198.24 39.9641 198.24 37.777C198.24 35.7594 196.715 34.1114 194.759 33.8804V33.865ZM147.984 31.2005C147.984 31.2005 148.046 31.1543 148.077 31.1389C148.077 31.1697 148.092 31.2005 148.107 31.2313C148.061 31.2159 148.015 31.2159 147.984 31.2005Z" fill="#FAFAFA" fill-opacity="0.972549"/>
<path d="M145.967 44.97C148.138 44.97 149.91 43.2142 149.91 41.0271C149.91 39.9336 149.463 38.9479 148.739 38.2394C149.863 37.5464 150.618 36.3142 150.618 34.8973C150.618 34.4198 150.526 33.9578 150.356 33.5419C150.803 33.7113 151.28 33.8191 151.773 33.8191C153.899 33.8191 155.608 32.1404 155.701 30.0457C156.378 30.6156 157.241 30.9698 158.196 30.9698C160.198 30.9698 161.831 29.4759 162.077 27.5352C162.801 28.4747 163.91 29.0908 165.188 29.0908C166.728 29.0908 168.037 28.2129 168.684 26.9346C169.331 28.2129 170.656 29.0908 172.181 29.0908C173.536 29.0908 174.722 28.4131 175.43 27.3812C176 28.8444 177.417 29.8917 179.096 29.8917C179.881 29.8917 180.605 29.6607 181.221 29.2602C181.637 30.9852 183.177 32.279 185.041 32.279C185.873 32.279 186.643 32.0171 187.274 31.5859C187.228 31.8169 187.197 32.0479 187.197 32.279C187.197 34.2966 188.722 35.9446 190.678 36.1756C190.462 36.6685 190.339 37.2075 190.339 37.7774C190.339 39.949 192.095 41.7202 194.282 41.7202" stroke="#3B3332" stroke-width="0.75" stroke-linecap="round" stroke-linejoin="round"/>
<path d="M193.342 24.7779C194.251 25.4864 194.759 26.5953 194.713 27.735C194.713 27.9506 194.898 28.1201 195.098 28.1201C195.314 28.1201 195.468 27.9506 195.483 27.735C195.545 26.4105 194.944 25.0551 193.881 24.2234C193.712 24.1002 193.496 24.0694 193.342 24.2234C193.204 24.362 193.173 24.6393 193.342 24.7625V24.7779Z" fill="#3B3332"/>
<path d="M181.175 7.85126C181.422 7.88207 181.653 7.94368 181.884 8.02068C181.945 8.03609 181.992 8.06689 182.053 8.08229C182.007 8.06689 182.069 8.08229 182.084 8.09769C182.115 8.09769 182.13 8.11309 182.161 8.1285C182.269 8.1901 182.392 8.23631 182.5 8.31332C182.608 8.37492 182.7 8.43653 182.792 8.51354C182.808 8.52894 182.839 8.54434 182.854 8.55974C182.808 8.52894 182.885 8.57515 182.885 8.59055C182.931 8.62135 182.977 8.66755 183.024 8.71376C183.116 8.79077 183.208 8.88318 183.285 8.97559C183.362 9.068 183.439 9.14501 183.486 9.22202C183.609 9.39144 183.824 9.46845 184.009 9.36063C184.179 9.26822 184.271 9.00639 184.148 8.83697C183.486 7.92827 182.484 7.2814 181.36 7.11198C181.16 7.08118 180.929 7.15818 180.883 7.37381C180.836 7.55863 180.944 7.82046 181.145 7.85126H181.175Z" fill="#3B3332"/>
<path d="M184.04 19.4488C185.473 19.5412 186.797 20.7887 186.967 22.2057C186.997 22.4059 187.121 22.5908 187.352 22.5908C187.536 22.5908 187.768 22.4059 187.737 22.2057C187.521 20.3267 185.935 18.8019 184.04 18.6787C183.84 18.6787 183.655 18.8635 183.655 19.0638C183.655 19.2794 183.825 19.4334 184.04 19.4488Z" fill="#3B3332"/>
<path d="M151.789 22.4836C151.712 21.5595 152.097 20.5892 152.775 19.9577C153.452 19.3262 154.515 18.8642 155.424 19.0182C155.624 19.049 155.84 18.972 155.901 18.7564C155.947 18.5715 155.84 18.3097 155.639 18.2789C154.438 18.0941 153.16 18.5715 152.282 19.3724C151.45 20.1271 150.942 21.3593 151.034 22.4836C151.05 22.6838 151.204 22.8686 151.419 22.8686C151.619 22.8686 151.82 22.6992 151.804 22.4836H151.789Z" fill="#3B3332"/>
<path d="M158.905 9.26906C158.905 9.05344 158.966 8.85321 159.074 8.66839C159.105 8.60679 159.136 8.56058 159.182 8.51438C159.243 8.42197 159.136 8.56058 159.213 8.46817C159.228 8.45277 159.243 8.42197 159.259 8.40657C159.305 8.36036 159.351 8.31416 159.397 8.26795C159.428 8.23715 159.459 8.22174 159.49 8.19094C159.444 8.22174 159.505 8.19094 159.521 8.17554C159.983 7.8521 160.506 7.75969 161.061 7.79049C161.261 7.79049 161.461 7.60567 161.446 7.40545C161.446 7.18983 161.277 7.03581 161.061 7.02041C160.368 6.98961 159.628 7.14362 159.059 7.55947C158.489 7.97531 158.135 8.57598 158.119 9.28446C158.119 9.48469 158.304 9.68491 158.504 9.66951C158.704 9.65411 158.889 9.50009 158.889 9.28446L158.905 9.26906Z" fill="#3B3332"/>
<path d="M168.669 13.9817C169.039 13.4427 169.67 13.0422 170.317 13.0114C171.026 12.9652 171.703 13.2425 172.181 13.7661C172.52 14.1358 173.059 13.5813 172.72 13.2271C172.104 12.5494 171.164 12.1643 170.256 12.2568C169.347 12.3492 168.515 12.842 168.007 13.6121C167.73 14.0279 168.392 14.413 168.669 13.9971V13.9817Z" fill="#3B3332"/>
<path d="M142.424 34.3269C141.977 33.1717 142.224 31.8318 143.071 30.9385C143.41 30.5843 142.871 30.0298 142.532 30.3994C141.5 31.4776 141.146 33.1409 141.685 34.5425C141.762 34.7427 141.947 34.8659 142.162 34.8043C142.347 34.7581 142.501 34.5271 142.424 34.3269Z" fill="#3B3332"/>
<path d="M184.549 81.9179C181.807 84.4745 176.848 86.1841 171.18 86.1841C164.942 86.1841 159.551 84.1049 157.041 81.1016L161.97 100.908L171.195 91.8828L182.331 100.015L184.564 81.9179H184.549Z" fill="#FAFAFA" fill-opacity="0.972549"/>
<path d="M181.113 85.445L174.722 94.4704L175.661 95.148L182.084 86.0764L183.901 87.2778L184.055 85.9994L182.746 85.1369L184.456 82.7189L184.548 81.918C183.994 82.4416 183.316 82.9191 182.592 83.3657L181.791 84.5055L181.206 84.1204C180.805 84.3206 180.374 84.4901 179.943 84.6595L181.129 85.445H181.113Z" fill="#FFDDAB"/>
<path d="M157.734 81.8105L157.349 82.3496L157.718 83.8282L158.612 82.5652C158.288 82.3188 157.996 82.0724 157.734 81.8105Z" fill="#FFDDAB"/>
<path d="M161.06 97.2747L163.802 99.1075L164.649 98.2758L160.645 95.6113L161.06 97.2747Z" fill="#FFDDAB"/>
<path d="M184.549 81.9179C181.807 84.4745 176.848 86.1841 171.18 86.1841C164.942 86.1841 159.551 84.1049 157.041 81.1016" stroke="#3B3332" stroke-width="0.75" stroke-linecap="round" stroke-linejoin="round"/>
<path d="M161.954 100.908L171.18 91.8828L182.916 100.908" stroke="#3B3332" stroke-width="0.75" stroke-linecap="round" stroke-linejoin="round"/>
<path d="M189.692 72.508C189.692 76.9899 193.327 80.6093 197.793 80.6093C202.26 80.6093 205.895 76.9745 205.895 72.508C205.895 72.1384 205.833 71.7996 205.787 71.4453H189.785C189.738 71.7996 189.677 72.1538 189.677 72.508H189.692Z" fill="#3B3332" stroke="#3B3332" stroke-width="0.75" stroke-linecap="round" stroke-linejoin="round"/>
<path d="M193.343 72.508C193.343 74.9723 195.345 76.9591 197.794 76.9591C200.243 76.9591 202.245 74.9569 202.245 72.508C202.245 72.1384 202.183 71.7842 202.106 71.4453H193.481C193.389 71.7842 193.343 72.1384 193.343 72.508Z" fill="#FAFAFA" fill-opacity="0.972549"/>
<path d="M197.794 69.366C198.653 69.366 199.349 68.6696 199.349 67.8104C199.349 66.9513 198.653 66.2549 197.794 66.2549C196.935 66.2549 196.238 66.9513 196.238 67.8104C196.238 68.6696 196.935 69.366 197.794 69.366Z" fill="#3B3332"/>
<path d="M197.793 64.7454C198.457 64.7454 198.994 64.2076 198.994 63.5441C198.994 62.8806 198.457 62.3428 197.793 62.3428C197.13 62.3428 196.592 62.8806 196.592 63.5441C196.592 64.2076 197.13 64.7454 197.793 64.7454Z" fill="#3B3332"/>
<path d="M197.794 59.6936C198.347 59.6936 198.795 59.2454 198.795 58.6925C198.795 58.1396 198.347 57.6914 197.794 57.6914C197.241 57.6914 196.793 58.1396 196.793 58.6925C196.793 59.2454 197.241 59.6936 197.794 59.6936Z" fill="#3B3332"/>
<path d="M224.901 268.063C229.136 236.475 238.87 155.908 237.915 135.732C236.791 111.89 188.46 91.0052 188.46 91.0052L185.934 80.8709C185.703 79.916 184.841 79.2383 183.855 79.2383H169.917L144.796 81.6409L128.578 99.892L90.6132 150.594L84.5449 268.048H224.901V268.063Z" fill="#FAFAFA" fill-opacity="0.972549"/>
<path d="M107.401 263.073L103.874 268.063H105.291L108.371 263.705L114.917 268.063H116.996L109.033 262.765L120.477 246.578L137.172 257.682L129.841 268.048H131.258L138.143 258.314L152.759 268.048H154.838L138.805 257.374L150.248 241.187L166.944 252.292L155.808 268.032H157.225L167.899 252.939L184.594 264.043L181.776 268.032H183.193L185.565 264.69L190.586 268.032H192.665L186.227 263.735L197.67 247.548L214.366 258.653L207.743 268.017H209.16L215.321 259.3L225.193 265.876C225.255 265.46 225.301 265.029 225.363 264.598L215.983 258.36L227.426 242.173L228.15 242.65C228.197 242.219 228.258 241.803 228.304 241.372L228.089 241.233L228.366 240.833C228.458 240.032 228.566 239.231 228.659 238.415L227.118 240.587L210.423 229.482L221.866 213.295L230.907 219.317C230.953 218.886 231 218.454 231.061 218.023L222.529 212.34L233.402 196.984C233.495 196.183 233.572 195.367 233.664 194.566L216.999 183.477L228.443 167.29L235.867 172.234C235.913 171.787 235.944 171.356 235.99 170.925L229.121 166.35L237.284 154.799C237.33 154.044 237.376 153.32 237.422 152.596L228.15 165.719L211.455 154.614L222.898 138.427L237.669 148.269C237.699 147.807 237.715 147.375 237.73 146.929L223.561 137.487L233.433 123.533C233.202 123.195 232.986 122.84 232.74 122.502L222.59 136.841L205.895 125.736L217.338 109.549L227.411 116.264C225.655 114.493 223.776 112.783 221.805 111.135L218.001 108.609L218.216 108.317C217.908 108.085 217.6 107.839 217.292 107.623L217.046 107.978L200.966 97.2735C197.224 95.2097 193.974 93.5771 191.725 92.5143L198.718 97.1657L187.274 113.353L170.579 102.248L182.022 86.061L188.214 90.1733L187.798 88.5099L182.7 85.1061L185.826 80.6858C185.688 80.2854 185.457 79.9157 185.133 79.6693L181.745 84.4746L173.859 79.2227H171.78L181.083 85.4141L169.639 101.601L152.944 90.4967L160.26 80.1468L158.735 80.2854L151.973 89.8499L142.84 83.7816L142.07 84.6595L151.296 90.8047L139.852 106.992L128.778 99.6145L128.532 99.8918L128.055 100.523L139.175 107.931L127.731 124.119L116.164 116.418L115.471 117.342L127.069 125.058L115.625 141.245L103.581 133.221L102.888 134.145L114.963 142.185L103.52 158.372L90.998 150.04L90.5667 150.61L90.5359 151.133L102.842 159.327L91.3984 175.514L89.35 174.143L89.273 175.483L90.7207 176.454L89.1036 178.749L88.9957 180.905L91.691 177.101L108.387 188.205L96.943 204.392L88.1024 198.509L88.0408 199.849L96.2962 205.347L87.0859 218.362L86.9781 220.518L97.2511 205.979L113.947 217.084L102.503 233.271L86.8549 222.859L86.7933 224.199L101.841 234.21L90.3973 250.397L85.6074 247.209L85.5304 248.549L89.7196 251.337L85.0375 257.944L84.9297 260.101L90.6745 251.968L107.37 263.073H107.401ZM137.835 256.758L121.139 245.654L132.583 229.466L149.278 240.571L137.835 256.758ZM169.593 177.147L181.036 160.96L197.732 172.064L186.288 188.251L169.593 177.147ZM185.611 189.191L174.167 205.378L157.472 194.274L168.915 178.086L185.611 189.191ZM168.638 176.5L151.943 165.395L163.386 149.208L180.082 160.313L168.638 176.5ZM167.96 177.439L156.517 193.627L139.821 182.522L151.265 166.335L167.96 177.439ZM155.855 194.566L144.411 210.753L127.716 199.649L139.159 183.462L155.855 194.566ZM156.81 195.213L173.505 206.318L162.062 222.505L145.366 211.4L156.81 195.213ZM174.46 206.965L191.155 218.069L179.712 234.256L163.016 223.152L174.46 206.965ZM175.138 206.025L186.581 189.838L203.277 200.943L191.833 217.13L175.138 206.025ZM187.243 188.898L198.687 172.711L215.382 183.816L203.939 200.003L187.243 188.898ZM198.394 171.125L181.699 160.02L193.142 143.833L209.838 154.938L198.394 171.125ZM180.744 159.373L164.048 148.269L175.492 132.081L192.187 143.186L180.744 159.373ZM163.093 147.622L146.398 136.517L157.841 120.33L174.537 131.435L163.093 147.622ZM162.431 148.577L150.988 164.764L134.292 153.659L145.736 137.472L162.431 148.577ZM150.31 165.688L138.867 181.875L122.171 170.771L133.615 154.583L150.31 165.688ZM138.204 182.815L126.761 199.002L110.065 187.897L121.509 171.71L138.204 182.815ZM127.053 200.588L143.749 211.693L132.305 227.88L115.61 216.775L127.053 200.588ZM149.94 239.632L133.245 228.527L144.688 212.34L161.384 223.444L149.94 239.632ZM167.591 251.383L150.895 240.279L162.339 224.091L179.034 235.196L167.591 251.383ZM185.241 263.135L168.546 252.03L179.989 235.843L196.685 246.947L185.241 263.135ZM197.362 246.008L180.667 234.903L192.11 218.716L208.806 229.821L197.362 246.008ZM226.456 241.572L215.013 257.759L198.317 246.655L209.761 230.468L226.456 241.572ZM209.468 228.881L192.773 217.777L204.216 201.589L220.912 212.694L209.468 228.881ZM233.033 195.583L221.589 211.77L204.894 200.665L216.337 184.478L233.033 195.583ZM227.488 166.704L216.045 182.892L199.349 171.787L210.793 155.6L227.488 166.704ZM221.959 137.826L210.515 154.013L193.82 142.909L205.263 126.722L221.959 137.826ZM199.734 97.8433L216.43 108.948L204.986 125.135L188.291 114.031L199.734 97.8433ZM187.613 114.955L204.308 126.059L192.865 142.247L176.17 131.142L187.613 114.955ZM169.963 103.203L186.658 114.308L175.215 130.495L158.519 119.39L169.963 103.203ZM152.312 91.4516L169.008 102.556L157.564 118.743L140.869 107.639L152.312 91.4516ZM140.206 108.578L156.902 119.683L145.458 135.87L128.763 124.766L140.206 108.578ZM128.085 125.705L144.781 136.81L133.337 152.997L116.642 141.892L128.085 125.705ZM115.98 142.832L132.675 153.936L121.232 170.124L104.536 159.019L115.98 142.832ZM92.4149 176.13L103.858 159.943L120.554 171.048L109.11 187.235L92.4149 176.13ZM97.9441 205.009L109.388 188.821L126.083 199.926L114.64 216.113L97.9441 205.009ZM114.932 217.715L131.628 228.82L120.184 245.007L103.489 233.902L114.932 217.715ZM102.826 234.826L119.522 245.931L108.078 262.118L91.383 251.014L102.826 234.826Z" fill="#FFDDAB"/>
<path d="M224.901 268.063C229.136 236.474 238.87 155.908 237.915 135.732C236.791 111.89 188.46 91.0052 188.46 91.0052L185.934 80.8709C185.703 79.916 184.841 79.2383 183.855 79.2383H169.917L144.796 81.6409L128.578 99.892L90.6132 150.594L84.5449 268.048H224.901V268.063Z" stroke="#3B3332" stroke-width="0.75" stroke-linecap="round" stroke-linejoin="round"/>
<path d="M124.867 268.063C179.435 232.531 176.37 138.288 176.37 138.288L170.748 135.824L173.628 133.976L161.076 87.8629C132.675 77.5899 99.5924 88.9256 73.5634 150.594C54.6347 195.444 50.5687 245.761 67.1871 268.048H124.867V268.063Z" fill="#FAFAFA" fill-opacity="0.972549"/>
<path d="M173.628 133.977L173.382 133.084L172.011 135.009L173.628 133.977Z" fill="#FFDDAB"/>
<path d="M56.7598 227.974C56.7598 228.451 56.7752 228.913 56.7906 229.375L72.0999 239.571L60.8258 255.497C61.0877 256.282 61.3649 257.052 61.6575 257.807L77.0592 268.064H79.3079L90.7052 251.954L107.401 263.059L103.874 268.049H105.291L108.371 263.69L114.917 268.049H116.996L109.033 262.751L120.477 246.564L137.172 257.668L136.017 259.301C137.757 257.684 139.405 256.005 141.007 254.249L150.264 241.173L150.787 241.527C151.003 241.204 151.203 240.88 151.403 240.557L150.911 240.233L155.161 234.227C156.455 231.886 157.656 229.498 158.796 227.08L149.94 239.602L133.245 228.497L144.688 212.31L160.66 222.953C160.814 222.598 160.968 222.229 161.122 221.875L145.351 211.371L156.794 195.183L167.883 202.561C167.991 202.176 168.099 201.775 168.207 201.39L157.456 194.229L168.9 178.041L172.843 180.66C172.92 180.244 172.981 179.828 173.058 179.412L169.577 177.102L174.414 170.279C174.521 169.463 174.614 168.646 174.706 167.861L168.623 176.47L151.927 165.366L163.371 149.178L175.723 157.403C175.754 156.956 175.784 156.51 175.815 156.078L164.033 148.239L172.334 136.503L171.256 136.025L163.078 147.592L146.382 136.487L157.826 120.3L172.55 130.111L172.088 128.417L158.488 119.361L166.528 107.994L166.127 106.546L157.518 118.714L140.822 107.609L152.266 91.422L164.156 99.3385L163.694 97.6443L152.928 90.4825L155.916 86.2624C155.516 86.1546 155.115 86.0622 154.715 85.9698L151.973 89.851L143.995 84.5374C143.287 84.522 142.578 84.5066 141.885 84.522L151.326 90.8059L139.883 106.993L123.187 95.8885L129.98 86.2778C129.379 86.4472 128.794 86.6166 128.193 86.8015L122.233 95.2262L117.135 91.8224C116.765 92.038 116.411 92.2537 116.041 92.4847L121.57 96.1657L110.127 112.353L100.377 105.869C100.116 106.161 99.8538 106.439 99.592 106.731L109.464 113.308L98.021 129.495L87.825 122.703C87.6248 123.026 87.4246 123.35 87.209 123.689L97.3433 130.435L85.8998 146.622L77.7677 141.2C77.5983 141.555 77.4443 141.909 77.2749 142.263L85.2376 147.561L73.7941 163.748L69.5124 160.899C69.3738 161.269 69.2506 161.638 69.112 162.023L73.1318 164.703L64.1834 177.348C63.8754 178.442 63.5827 179.52 63.2901 180.613L74.0867 165.35L90.7822 176.455L79.3387 192.642L62.9975 181.768C62.8897 182.169 62.7972 182.554 62.6894 182.954L78.661 193.597L67.2175 209.784L58.4848 203.962C58.4232 204.394 58.3615 204.809 58.3153 205.241L66.5553 210.724L56.7752 224.554C56.7752 225.232 56.7752 225.91 56.7752 226.572L67.541 211.355L84.2365 222.46L72.793 238.647L56.7906 227.989L56.7598 227.974ZM108.063 262.119L91.3674 251.015L102.811 234.827L119.506 245.932L108.063 262.119ZM122.171 170.772L133.614 154.584L150.31 165.689L138.866 181.876L122.171 170.772ZM138.204 182.816L126.761 199.003L110.065 187.898L121.509 171.711L138.204 182.816ZM133.322 152.998L116.626 141.893L128.07 125.706L144.765 136.811L133.322 152.998ZM132.659 153.938L121.216 170.125L104.521 159.02L115.964 142.833L132.659 153.938ZM120.554 171.064L109.11 187.252L92.4148 176.147L103.858 159.96L120.554 171.064ZM109.403 188.838L126.098 199.943L114.655 216.13L97.9594 205.025L109.403 188.838ZM113.977 217.069L102.534 233.256L85.8382 222.152L97.2817 205.965L113.977 217.069ZM120.184 245.008L103.489 233.903L114.932 217.716L131.628 228.821L120.184 245.008ZM149.278 240.572L137.834 256.76L121.139 245.655L132.582 229.468L149.278 240.572ZM132.29 227.881L115.594 216.777L127.038 200.589L143.733 211.694L132.29 227.881ZM144.411 210.755L127.716 199.65L139.159 183.463L155.854 194.567L144.411 210.755ZM167.96 177.441L156.517 193.628L139.821 182.523L151.265 166.336L167.96 177.441ZM162.431 148.578L150.988 164.765L134.292 153.66L145.736 137.473L162.431 148.578ZM140.206 108.579L156.902 119.684L145.458 135.871L128.763 124.767L140.206 108.579ZM122.541 96.828L139.236 107.933L127.793 124.12L111.097 113.015L122.541 96.828ZM110.435 113.955L127.13 125.059L115.687 141.247L98.9913 130.142L110.435 113.955ZM98.3136 131.081L115.009 142.186L103.566 158.373L86.8701 147.269L98.3136 131.081ZM74.7644 164.38L86.2079 148.193L102.903 159.297L91.4599 175.485L74.7644 164.38ZM91.7525 177.086L108.448 188.191L97.0045 204.378L80.309 193.274L91.7525 177.086ZM68.1878 210.385L79.6313 194.198L96.3268 205.302L84.8833 221.49L68.1878 210.385ZM85.176 223.076L101.871 234.181L90.4279 250.368L73.7325 239.263L85.176 223.076ZM89.7503 251.323L78.3068 267.51L61.6113 256.405L73.0548 240.218L89.7503 251.323Z" fill="#FFDDAB"/>
<path d="M161.076 87.8785C132.675 77.6056 99.5924 88.9412 73.5634 150.61C54.6347 195.46 50.5687 245.777 67.1871 268.063H124.867C179.435 232.532 176.37 138.288 176.37 138.288L136.757 120.977L73.5634 198.355" stroke="#3B3332" stroke-width="0.75" stroke-linecap="round" stroke-linejoin="round"/>
<path d="M163.248 144.403C163.248 144.403 173.752 119.144 174.614 111.043C175.477 102.941 168.13 92.2371 158.35 83.7662L151.835 80.8398L146.722 83.6584C146.722 83.6584 147.476 95.071 150.526 100.723C153.575 106.376 155.639 113.214 153.344 119.745C151.065 126.26 147.415 136.733 147.415 136.733L163.232 144.403H163.248Z" fill="#FAFAFA" fill-opacity="0.972549" stroke="#3B3332" stroke-width="0.75" stroke-linecap="round" stroke-linejoin="round"/>
<path d="M155.3 93.0236L133.722 56.4599C133.568 56.2135 133.507 55.9208 133.507 55.6282L134 37.4542C134.046 35.8986 136.11 35.3595 136.895 36.7149L160.044 76.3127C160.213 76.6054 160.29 76.9596 160.244 77.2984L158.18 92.4383C157.98 93.9015 156.055 94.2865 155.3 93.0236Z" fill="#3B3332" stroke="#3B3332" stroke-width="0.75" stroke-linecap="round" stroke-linejoin="round"/>
<path d="M134.339 56.2597L134.524 49.4521L136.218 51.8086C136.588 52.3169 136.757 52.9175 136.742 53.5336L136.495 59.2939L134.339 56.2597Z" fill="#FAFAFA" fill-opacity="0.972549" stroke="#3B3332" stroke-width="0.75" stroke-linecap="round" stroke-linejoin="round"/>
<path d="M163.248 144.404C163.248 144.404 159.767 120.5 160.861 111.367C161.954 102.234 157.703 96.9203 157.703 96.9203C150.418 88.4494 150.095 83.1204 150.095 83.1204C154.33 88.1259 157.595 86.8168 158.35 83.7672C159.105 80.7177 155.085 74.4184 151.62 74.4184C149.325 74.4184 145.536 75.1577 143.072 76.5746V76.4514L144.566 72.6318C144.566 72.6318 146.953 72.1851 148.986 71.3072C151.019 70.4293 153.868 67.8727 153.114 65.239C152.282 62.3126 147.045 62.8671 143.287 64.284C143.749 63.0519 147.168 59.8176 148.154 58.4622C149.125 57.0914 149.787 54.8736 148.478 53.6877C147.338 52.6403 145.705 52.5017 142.656 54.2267C138.266 56.7218 133.384 65.7472 132.075 68.5657C130.766 71.3843 132.737 75.2039 132.737 75.2039C132.414 75.82 132.183 76.3744 132.09 76.8211C131.505 79.7166 135.556 89.204 137.881 92.7464C140.392 96.5507 144.92 100.956 149.186 107.039C153.452 113.123 147.892 124.428 142.625 134.424L163.232 144.419L163.248 144.404Z" fill="#FAFAFA" fill-opacity="0.972549"/>
<path d="M142.055 90.3898C142.055 90.3898 139.452 80.5789 141.192 78.1608C142.933 75.7427 148.585 74.4336 151.619 74.4336C155.1 74.4336 159.12 80.7329 158.35 83.7824C157.595 86.832 154.33 88.1257 150.094 83.1356C150.094 83.1356 150.418 88.4646 157.703 96.9355" stroke="#3B3332" stroke-width="0.75" stroke-linecap="round" stroke-linejoin="round"/>
<path d="M143.072 76.4661L144.55 72.6464C144.55 72.6464 146.938 72.1998 148.971 71.3219C151.004 70.444 153.853 67.8873 153.098 65.2536C152.236 62.2041 146.583 62.928 142.81 64.4681C139.037 66.0083 132.676 73.9248 132.09 76.8203C131.505 79.7158 135.556 89.2033 137.881 92.7457C140.392 96.5499 144.92 100.955 149.186 107.038C153.453 113.122 147.892 124.427 142.625 134.423L163.233 144.418" stroke="#3B3332" stroke-width="0.75" stroke-linecap="round" stroke-linejoin="round"/>
<path d="M132.721 75.2034C132.721 75.2034 130.75 71.3991 132.059 68.5652C133.368 65.7467 138.251 56.7213 142.64 54.2262C145.69 52.4858 147.322 52.6398 148.462 53.6871C149.771 54.8885 149.109 57.1063 148.139 58.4617C147.168 59.8324 143.734 63.0514 143.272 64.2835" stroke="#3B3332" stroke-width="0.75" stroke-linecap="round" stroke-linejoin="round"/>
<path d="M136.756 120.977L126.206 133.899L175.753 157.14C176.601 145.696 176.369 138.288 176.369 138.288L136.756 120.977Z" fill="#FAFAFA" fill-opacity="0.972549" stroke="#3B3332" stroke-width="0.75" stroke-linecap="round" stroke-linejoin="round"/>
<path d="M172.904 144.896C172.904 146.328 171.749 147.484 170.317 147.484C168.885 147.484 167.729 146.328 167.729 144.896C167.729 143.464 168.885 142.309 170.317 142.309C171.749 142.309 172.904 143.464 172.904 144.896Z" fill="#3B3332"/>
<path d="M257.675 268.063C268.256 226.971 260.016 157.278 260.016 157.278L217.353 150.887C217.353 150.887 181.036 211.523 174.675 255.973C174.09 260.008 174.398 264.089 175.445 268.063H257.675Z" fill="#FAFAFA" fill-opacity="0.972549"/>
<path d="M181.76 268.064H183.177L185.549 264.722L190.57 268.064H192.649L186.211 263.767L197.655 247.58L214.35 258.685L207.728 268.049H209.145L215.305 259.331L228.397 268.049H230.476L215.968 258.392L227.411 242.205L244.106 253.309L233.68 268.049H235.096L245.061 253.956L258.815 263.12C258.908 262.72 258.985 262.319 259.077 261.904L245.739 253.017L257.183 236.83L262.034 240.064C262.065 239.633 262.111 239.186 262.142 238.755L257.845 235.89L262.727 228.99C262.758 228.282 262.789 227.573 262.804 226.865L256.875 235.243L240.179 224.139L251.623 207.951L263.035 215.56C263.035 215.098 263.035 214.636 263.035 214.174L252.285 207.012L262.604 192.426C262.573 191.795 262.542 191.163 262.527 190.547L251.33 206.38L234.634 195.276L246.078 179.088L262.496 190.024C262.481 189.546 262.45 189.069 262.419 188.591L246.74 178.149L258.184 161.962L260.633 163.594C260.586 163.071 260.54 162.578 260.494 162.116L258.846 161.022L260.186 159.128C260.093 158.235 260.016 157.634 260.001 157.403L257.891 160.391L251.253 155.97L248.558 155.57L257.213 161.33L245.77 177.517L229.074 166.413L237.869 153.984L236.59 153.799L228.119 165.781L214.119 156.463C213.935 156.787 213.75 157.126 213.549 157.48L227.442 166.736L215.998 182.923L204.17 175.038C204 175.377 203.816 175.731 203.646 176.07L215.336 183.863L203.893 200.05L194.975 194.105C194.821 194.459 194.652 194.814 194.498 195.168L203.23 200.99L191.787 217.177L186.658 213.758C186.519 214.127 186.381 214.497 186.227 214.867L191.109 218.116L179.666 234.304L179.589 234.242C179.234 235.459 178.88 236.676 178.557 237.877L179.974 235.875L196.669 246.979L185.226 263.166L174.66 256.128C174.598 256.559 174.568 256.99 174.521 257.422L184.563 264.106L181.745 268.095L181.76 268.064ZM215.013 257.76L198.317 246.656L209.761 230.469L226.456 241.573L215.013 257.76ZM227.118 240.634L210.423 229.529L221.866 213.342L238.562 224.447L227.118 240.634ZM256.228 236.213L244.784 252.401L228.089 241.296L239.532 225.109L256.228 236.213ZM250.683 207.335L239.24 223.522L222.544 212.418L233.988 196.231L250.683 207.335ZM228.458 167.337L245.154 178.442L233.71 194.629L217.015 183.524L228.458 167.337ZM216.337 184.464L233.033 195.568L221.589 211.756L204.894 200.651L216.337 184.464ZM204.231 201.59L220.927 212.695L209.483 228.882L192.788 217.778L204.231 201.59ZM180.667 234.904L192.11 218.717L208.806 229.822L197.362 246.009L180.667 234.904Z" fill="#FFDDAB"/>
<path d="M257.675 268.063C268.256 226.971 260.016 157.278 260.016 157.278L217.353 150.887C217.353 150.887 181.036 211.523 174.675 255.973C174.09 260.008 174.398 264.089 175.445 268.063H257.675Z" stroke="#3B3332" stroke-width="0.75" stroke-linecap="round" stroke-linejoin="round"/>
<path d="M267.517 119.745H267.578C269.057 118.682 270.243 116.634 269.426 113.753C268.98 112.167 267.301 110.303 264.96 108.902C265.484 105.868 263.99 101.54 263.99 101.54C263.99 101.54 258.614 98.0745 255.411 98.0899C252.192 98.0899 231.169 108.717 230.429 116.387C229.69 124.057 226.225 163.978 226.225 163.978L251.791 173.374L253.116 143.356C258.152 138.658 263.836 133.052 263.99 130.387C264.036 129.556 263.805 128.832 263.435 128.216L264.159 128.246C266.546 126.506 269.026 125.459 268.441 121.916C268.318 121.131 268.025 120.392 267.532 119.745H267.517Z" fill="#FAFAFA" fill-opacity="0.972549"/>
<path d="M239.193 122.579C239.193 122.579 235.528 121.916 236.76 116.634C237.992 111.351 252.547 106.499 258.153 106.792C263.759 107.085 268.58 110.858 269.412 113.738C270.243 116.618 269.057 118.667 267.563 119.729" stroke="#3B3332" stroke-width="0.75" stroke-linecap="round" stroke-linejoin="round"/>
<path d="M238.13 126.907C238.13 126.907 235.373 121.178 250.051 118.451C264.421 115.787 267.871 118.374 268.441 121.917C269.011 125.459 266.547 126.507 264.159 128.247" stroke="#3B3332" stroke-width="0.75" stroke-linecap="round" stroke-linejoin="round"/>
<path d="M254.086 135.039C254.086 135.039 251.699 134.792 247.325 133.883C242.951 132.975 236.267 132.066 237.745 127.861C239.224 123.657 254.702 124.211 260.108 125.751C261.556 126.167 264.144 127.738 263.99 130.387C263.82 133.052 258.137 138.658 253.116 143.356L252.331 169.23L226.225 163.978C226.225 163.978 229.69 124.057 230.429 116.387C231.169 108.717 252.207 98.0898 255.411 98.0898C258.63 98.0898 263.99 101.54 263.99 101.54C263.99 101.54 265.484 105.868 264.96 108.902" stroke="#3B3332" stroke-width="0.75" stroke-linecap="round" stroke-linejoin="round"/>
<path d="M256.983 97.7671C254.734 94.0245 250.36 92.623 246.201 92.777C243.275 92.8848 243.26 97.4437 246.201 97.3359C249.005 97.2281 253.009 98.0444 253.579 101.402C253.871 103.142 252.793 104.975 251.9 106.392C251.084 107.67 250.098 108.826 248.974 109.857C244.553 113.97 238.1 115.941 232.17 114.678C229.306 114.078 228.089 118.467 230.954 119.068C237.268 120.408 244.014 119.037 249.328 115.356C254.426 111.814 260.848 104.22 256.983 97.7825V97.7671Z" fill="#FAFAFA" fill-opacity="0.972549" stroke="#3B3332" stroke-width="0.75" stroke-miterlimit="10"/>
<path d="M247.372 87.6934H201.367C199.426 87.6934 197.871 89.2951 197.932 91.2204C198.24 100.03 201.275 122.239 224.362 121.731C247.449 122.239 250.499 100.03 250.791 91.2204C250.853 89.2797 249.297 87.6934 247.357 87.6934H247.372Z" fill="#FAFAFA" fill-opacity="0.972549" stroke="#3B3332" stroke-width="0.75" stroke-miterlimit="10"/>
<path d="M265.254 100.246C264.776 96.4423 262.189 92.1298 255.812 92.8537C249.436 93.5775 238.578 99.7998 241.412 105.575C244.246 111.351 260.294 103.096 260.294 103.096L265.254 108.764C265.254 108.764 265.731 104.051 265.254 100.246Z" fill="#FAFAFA" fill-opacity="0.972549"/>
<path d="M260.309 103.096C260.309 103.096 244.26 111.351 241.426 105.575C238.592 99.7998 249.451 93.5621 255.827 92.8537C262.203 92.1298 264.791 96.4423 265.268 100.246C265.746 104.051 265.268 108.764 265.268 108.764" stroke="#3B3332" stroke-width="0.75" stroke-linecap="round" stroke-linejoin="round"/>
<path d="M218.201 83.8745C216.245 82.5807 215.229 80.2551 215.337 77.9448C215.46 75.0955 217.37 73.4937 219.495 71.9074C221.482 70.4134 223.222 68.5806 223.607 66.0239C223.993 63.4672 222.545 61.2802 221.189 59.2009C219.233 56.2438 218.325 52.9632 219.095 49.4362C219.203 48.9588 218.463 48.7432 218.356 49.236C217.739 52.0545 218.063 55.0117 219.341 57.5991C220.62 60.1866 223.176 62.4815 222.884 65.608C222.56 69.0118 219.68 70.6136 217.339 72.585C215.552 74.079 214.505 76.0812 214.551 78.4223C214.597 80.7633 215.768 83.1814 217.801 84.5368C218.217 84.814 218.602 84.1517 218.186 83.8745H218.201Z" fill="#3B3332"/>
<path d="M231.447 83.8745C229.491 82.5807 228.474 80.2551 228.582 77.9448C228.705 75.0955 230.615 73.4937 232.74 71.9074C234.727 70.4134 236.468 68.5806 236.853 66.0239C237.238 63.4672 235.79 61.2802 234.435 59.2009C232.479 56.2438 231.57 52.9632 232.34 49.4362C232.448 48.9588 231.708 48.7432 231.601 49.236C230.985 52.0545 231.308 55.0117 232.586 57.5991C233.865 60.1866 236.421 62.4815 236.129 65.608C235.805 69.0118 232.925 70.6136 230.584 72.585C228.798 74.079 227.75 76.0812 227.796 78.4223C227.843 80.7633 229.013 83.1814 231.046 84.5368C231.462 84.814 231.847 84.1517 231.431 83.8745H231.447Z" fill="#3B3332"/>
<path d="M261.495 173.188C260.756 163.439 260.016 157.278 260.016 157.278L217.354 150.887C217.354 150.887 214.366 155.892 209.945 164.055L261.479 173.188H261.495Z" fill="#FAFAFA" fill-opacity="0.972549" stroke="#3B3332" stroke-width="0.75" stroke-linecap="round" stroke-linejoin="round"/>
<path d="M220.573 160.869C222.036 160.869 223.222 159.682 223.222 158.219C223.222 156.756 222.036 155.57 220.573 155.57C219.11 155.57 217.924 156.756 217.924 158.219C217.924 159.682 219.11 160.869 220.573 160.869Z" fill="#3B3332"/>
<path d="M206.773 250.521H198.826H181.684L186.504 276.843H200.458H205.14H219.094L223.915 250.521H206.773Z" fill="#3B3332"/>
<path d="M201.321 276.843H204.109V250.521H200.705L201.321 276.843Z" fill="#FAFAFA" fill-opacity="0.972549"/>
<path d="M210.685 276.843H213.688L216.183 250.521H212.641L210.685 276.843Z" fill="#FAFAFA" fill-opacity="0.972549"/>
<path d="M192.233 250.521H189.538L192.049 276.843H194.405L192.233 250.521Z" fill="#FAFAFA" fill-opacity="0.972549"/>
<path d="M231.677 239.032C229.721 232.039 222.051 232.363 222.051 232.363C222.051 232.363 223.406 225.031 216.183 222.351C208.959 219.672 205.479 225.031 205.479 225.031C205.479 225.031 200.242 218.978 193.25 220.488C186.257 221.997 184.055 230.268 184.055 230.268C180.682 228.173 171.564 231.669 171.595 240.31C171.626 247.472 181.668 250.537 181.668 250.537H223.914C223.914 250.537 233.618 245.947 231.677 239.047V239.032Z" fill="#FAFAFA" fill-opacity="0.972549" stroke="#3B3332" stroke-width="0.75" stroke-linecap="round" stroke-linejoin="round"/>
<path d="M195.529 233.764C197.945 233.764 199.903 231.805 199.903 229.39C199.903 226.974 197.945 225.016 195.529 225.016C193.114 225.016 191.155 226.974 191.155 229.39C191.155 231.805 193.114 233.764 195.529 233.764Z" fill="#FFDDAB"/>
<path d="M194.359 227.265C194.528 227.357 194.682 227.465 194.852 227.573C194.852 227.573 194.898 227.619 194.913 227.619C194.867 227.588 194.883 227.619 194.913 227.619C194.96 227.65 194.99 227.681 195.037 227.712C195.114 227.773 195.175 227.835 195.252 227.912C195.391 228.05 195.514 228.189 195.637 228.343C195.637 228.358 195.668 228.374 195.683 228.389C195.714 228.42 195.73 228.466 195.76 228.497C195.822 228.574 195.868 228.666 195.93 228.743C196.038 228.913 196.284 228.99 196.454 228.882C196.623 228.774 196.7 228.543 196.592 228.358C196.145 227.619 195.514 227.003 194.759 226.587C194.59 226.495 194.328 226.541 194.236 226.726C194.143 226.911 194.189 227.142 194.374 227.249L194.359 227.265Z" fill="#3B3332"/>
<path d="M195.067 228.558C195.129 228.465 195.191 228.388 195.252 228.296C195.283 228.25 195.314 228.219 195.345 228.173C195.345 228.173 195.406 228.096 195.376 228.127C195.345 228.157 195.391 228.111 195.391 228.096C195.514 227.926 195.653 227.772 195.791 227.603C196.069 227.295 196.377 227.002 196.685 226.725C196.839 226.586 196.823 226.309 196.685 226.186C196.515 226.032 196.3 226.047 196.146 226.186C195.483 226.756 194.898 227.418 194.405 228.157C194.297 228.327 194.374 228.589 194.544 228.681C194.744 228.789 194.944 228.727 195.067 228.542V228.558Z" fill="#3B3332"/>
<path d="M183.301 244.006C185.717 244.006 187.675 242.048 187.675 239.632C187.675 237.216 185.717 235.258 183.301 235.258C180.885 235.258 178.927 237.216 178.927 239.632C178.927 242.048 180.885 244.006 183.301 244.006Z" fill="#FFDDAB"/>
<path d="M180.759 239.016C180.852 239.016 180.944 239.016 181.021 239.047C181.052 239.047 181.067 239.047 181.098 239.047C181.144 239.047 181.144 239.047 181.129 239.047C181.098 239.047 181.114 239.047 181.16 239.047C181.191 239.047 181.206 239.047 181.237 239.047C181.406 239.078 181.576 239.108 181.745 239.155C182.084 239.232 182.423 239.355 182.746 239.478C182.931 239.555 183.177 239.401 183.224 239.216C183.27 238.985 183.147 238.831 182.962 238.739C182.269 238.446 181.529 238.292 180.79 238.23C180.59 238.23 180.39 238.415 180.405 238.616C180.405 238.831 180.575 238.985 180.79 239.001L180.759 239.016Z" fill="#3B3332"/>
<path d="M181.792 237.184C181.514 238.154 181.36 239.155 181.299 240.156C181.299 240.357 181.484 240.541 181.684 240.541C181.899 240.541 182.054 240.372 182.069 240.156C182.131 239.217 182.285 238.293 182.531 237.384C182.593 237.184 182.469 236.968 182.269 236.907C182.069 236.845 181.853 236.968 181.792 237.168V237.184Z" fill="#3B3332"/>
<path d="M212.764 231.885C214.465 231.885 215.844 230.506 215.844 228.805C215.844 227.104 214.465 225.725 212.764 225.725C211.063 225.725 209.684 227.104 209.684 228.805C209.684 230.506 211.063 231.885 212.764 231.885Z" fill="#FFDDAB"/>
<path d="M212.548 227.157C212.548 227.157 212.61 227.234 212.641 227.264C212.671 227.295 212.671 227.295 212.641 227.264C212.641 227.28 212.671 227.295 212.687 227.326C212.749 227.403 212.795 227.48 212.841 227.557C212.949 227.711 213.041 227.865 213.134 228.019C213.226 228.173 213.303 228.343 213.38 228.512C213.395 228.558 213.411 228.589 213.442 228.635C213.457 228.681 213.457 228.681 213.442 228.635C213.442 228.651 213.457 228.681 213.472 228.697C213.503 228.789 213.534 228.866 213.565 228.959C213.626 229.143 213.827 229.298 214.042 229.22C214.227 229.159 214.381 228.943 214.304 228.743C214.027 227.958 213.611 227.249 213.087 226.618C212.964 226.464 212.672 226.479 212.548 226.618C212.394 226.787 212.41 227.003 212.548 227.157Z" fill="#3B3332"/>
<path d="M212.626 228.465C212.764 228.388 212.918 228.327 213.072 228.25C213.149 228.219 213.226 228.188 213.303 228.157C213.319 228.157 213.349 228.142 213.365 228.127C213.334 228.127 213.334 228.142 213.365 228.127C213.396 228.127 213.442 228.096 213.473 228.08C213.781 227.957 214.089 227.849 214.397 227.757C214.582 227.695 214.736 227.48 214.659 227.28C214.582 227.079 214.397 226.941 214.181 227.018C213.519 227.233 212.872 227.495 212.24 227.803C212.056 227.896 211.994 228.157 212.102 228.327C212.225 228.512 212.441 228.558 212.626 228.465Z" fill="#3B3332"/>
<path d="M220.218 243.991C222.625 243.991 224.577 242.039 224.577 239.632C224.577 237.225 222.625 235.273 220.218 235.273C217.811 235.273 215.859 237.225 215.859 239.632C215.859 242.039 217.811 243.991 220.218 243.991Z" fill="#FFDDAB"/>
<path d="M221.127 237.692C221.573 238.293 221.974 238.924 222.328 239.586C222.42 239.771 222.682 239.833 222.852 239.725C223.037 239.602 223.083 239.386 222.99 239.201C222.652 238.539 222.251 237.907 221.789 237.307C221.727 237.23 221.666 237.153 221.558 237.137C221.466 237.107 221.342 237.137 221.265 237.184C221.111 237.291 221.004 237.538 221.127 237.707V237.692Z" fill="#3B3332"/>
<path d="M221.066 239.401C221.759 239.17 222.437 238.908 223.115 238.631C223.299 238.554 223.453 238.369 223.376 238.153C223.315 237.968 223.099 237.799 222.899 237.891C222.221 238.168 221.544 238.43 220.85 238.661C220.666 238.723 220.512 238.923 220.589 239.139C220.65 239.324 220.85 239.478 221.066 239.401Z" fill="#3B3332"/>
<path d="M207.573 240.542C207.573 242.451 206.018 244.007 204.108 244.007C202.198 244.007 200.643 242.451 200.643 240.542C200.643 238.632 202.198 237.076 204.108 237.076C206.018 237.076 207.573 238.632 207.573 240.542Z" fill="#FFDDAB"/>
<path d="M201.845 239.709C202.445 239.925 203.046 240.125 203.647 240.341C203.832 240.402 204.078 240.264 204.124 240.079C204.17 239.863 204.063 239.678 203.862 239.601C203.262 239.386 202.661 239.186 202.06 238.97C201.876 238.908 201.629 239.047 201.583 239.232C201.537 239.447 201.644 239.632 201.845 239.709Z" fill="#3B3332"/>
<path d="M202.645 238.276C202.538 238.908 202.43 239.555 202.322 240.186C202.291 240.386 202.368 240.617 202.584 240.664C202.769 240.71 203.015 240.602 203.061 240.402C203.169 239.77 203.277 239.123 203.385 238.492C203.415 238.292 203.338 238.061 203.123 238.015C202.938 237.968 202.692 238.076 202.645 238.276Z" fill="#3B3332"/>
<path d="M194.406 244.683C194.406 245.068 194.098 245.376 193.713 245.376C193.328 245.376 193.02 245.068 193.02 244.683C193.02 244.298 193.328 243.99 193.713 243.99C194.098 243.99 194.406 244.298 194.406 244.683Z" fill="#3B3332"/>
<path d="M177.617 237.291C177.617 237.83 177.186 238.261 176.647 238.261C176.108 238.261 175.677 237.83 175.677 237.291C175.677 236.752 176.108 236.32 176.647 236.32C177.186 236.32 177.617 236.752 177.617 237.291Z" fill="#3B3332"/>
<path d="M206.018 231.222C206.018 231.746 205.587 232.177 205.063 232.177C204.54 232.177 204.108 231.746 204.108 231.222C204.108 230.699 204.54 230.268 205.063 230.268C205.587 230.268 206.018 230.699 206.018 231.222Z" fill="#3B3332"/>
<path d="M214.289 244.145C214.289 244.869 213.704 245.454 212.98 245.454C212.256 245.454 211.671 244.869 211.671 244.145C211.671 243.421 212.256 242.836 212.98 242.836C213.704 242.836 214.289 243.421 214.289 244.145Z" fill="#3B3332"/>
<path d="M229.013 239.833C229.013 240.219 228.705 240.542 228.304 240.542C227.904 240.542 227.596 240.234 227.596 239.833C227.596 239.433 227.904 239.125 228.304 239.125C228.705 239.125 229.013 239.433 229.013 239.833Z" fill="#3B3332"/>
<path d="M192.495 236.907C192.785 236.907 193.019 236.672 193.019 236.383C193.019 236.094 192.785 235.859 192.495 235.859C192.206 235.859 191.972 236.094 191.972 236.383C191.972 236.672 192.206 236.907 192.495 236.907Z" fill="#3B3332"/>
<path d="M232.248 285.684H170.364C167.961 285.684 166.005 283.728 166.005 281.325C166.005 278.923 167.961 276.967 170.364 276.967H232.248C234.65 276.967 236.606 278.923 236.606 281.325C236.606 283.728 234.65 285.684 232.248 285.684Z" fill="#FAFAFA" fill-opacity="0.972549" stroke="#3B3332" stroke-width="0.75" stroke-linecap="round" stroke-linejoin="round"/>
</svg>
